solid OpenSCAD_Model
  facet normal 0.587785 0.809017 -0
    outer loop
      vertex 14.3863 15.9776 0
      vertex 11.7765 17.8737 8
      vertex 14.3863 15.9776 8
    endloop
  endfacet
  facet normal 0.587785 0.809017 0
    outer loop
      vertex 11.7765 17.8737 8
      vertex 14.3863 15.9776 0
      vertex 11.7765 17.8737 0
    endloop
  endfacet
  facet normal -0.587785 0.809017 0
    outer loop
      vertex -11.7765 17.8737 0
      vertex -14.3863 15.9776 8
      vertex -11.7765 17.8737 8
    endloop
  endfacet
  facet normal -0.587785 0.809017 0
    outer loop
      vertex -14.3863 15.9776 8
      vertex -11.7765 17.8737 0
      vertex -14.3863 15.9776 0
    endloop
  endfacet
  facet normal 0.866025 0.500001 0
    outer loop
      vertex 18.2817 11.0997 8
      vertex 17.3939 12.6374 0
      vertex 17.3939 12.6374 8
    endloop
  endfacet
  facet normal 0.866025 0.500001 0
    outer loop
      vertex 17.3939 12.6374 0
      vertex 18.2817 11.0997 8
      vertex 18.2817 11.0997 0
    endloop
  endfacet
  facet normal 0.743145 0.66913 0
    outer loop
      vertex 17.3939 12.6374 8
      vertex 14.3863 15.9776 0
      vertex 14.3863 15.9776 8
    endloop
  endfacet
  facet normal 0.743145 0.66913 0
    outer loop
      vertex 14.3863 15.9776 0
      vertex 17.3939 12.6374 8
      vertex 17.3939 12.6374 0
    endloop
  endfacet
  facet normal -0.866025 0.500001 0
    outer loop
      vertex -17.9032 11.7552 0
      vertex -17.3939 12.6374 8
      vertex -17.3939 12.6374 0
    endloop
  endfacet
  facet normal -0.866025 0.500001 0
    outer loop
      vertex -17.3939 12.6374 8
      vertex -17.9032 11.7552 0
      vertex -17.9032 11.7552 8
    endloop
  endfacet
  facet normal -0.743145 0.66913 0
    outer loop
      vertex -17.3939 12.6374 0
      vertex -14.3863 15.9776 8
      vertex -14.3863 15.9776 0
    endloop
  endfacet
  facet normal -0.743145 0.66913 0
    outer loop
      vertex -14.3863 15.9776 8
      vertex -17.3939 12.6374 0
      vertex -17.3939 12.6374 8
    endloop
  endfacet
  facet normal 0 0 1
    outer loop
      vertex 17.3939 12.6374 8
      vertex 16.3013 9.66088 8
      vertex 18.2817 11.0997 8
    endloop
  endfacet
  facet normal 0 0 1
    outer loop
      vertex 14.3863 15.9776 8
      vertex 16.3013 9.66088 8
      vertex 17.3939 12.6374 8
    endloop
  endfacet
  facet normal -0 0 1
    outer loop
      vertex 10.9625 15.1192 8
      vertex 16.3013 9.66088 8
      vertex 14.3863 15.9776 8
    endloop
  endfacet
  facet normal 0 0 1
    outer loop
      vertex 16.3013 9.66088 8
      vertex 9.7082 12.9466 8
      vertex 14.4828 7.64121 8
    endloop
  endfacet
  facet normal -0 0 1
    outer loop
      vertex 8.02957 11.0823 8
      vertex 14.4828 7.64121 8
      vertex 9.7082 12.9466 8
    endloop
  endfacet
  facet normal -0 0 1
    outer loop
      vertex 11.7378 17.5051 8
      vertex 14.3863 15.9776 8
      vertex 11.7765 17.8737 8
    endloop
  endfacet
  facet normal 0 0 1
    outer loop
      vertex 10.9625 15.1192 8
      vertex 14.3863 15.9776 8
      vertex 11.7378 17.5051 8
    endloop
  endfacet
  facet normal 0 0 1
    outer loop
      vertex 16.3013 9.66088 8
      vertex 10.9625 15.1192 8
      vertex 9.7082 12.9466 8
    endloop
  endfacet
  facet normal 0 0 1
    outer loop
      vertex 12.2841 2.70285 8
      vertex 11.6566 1.85065 8
      vertex 12.0165 0.157398 8
    endloop
  endfacet
  facet normal 0 0 1
    outer loop
      vertex 14.4828 7.64121 8
      vertex 8.02957 11.0823 8
      vertex 13.1239 5.28758 8
    endloop
  endfacet
  facet normal 0 0 1
    outer loop
      vertex 12.2841 2.70285 8
      vertex 10.5445 3.38131 8
      vertex 11.6566 1.85065 8
    endloop
  endfacet
  facet normal 0 0 1
    outer loop
      vertex 13.1239 5.28758 8
      vertex 10.5445 3.38131 8
      vertex 12.2841 2.70285 8
    endloop
  endfacet
  facet normal 0 -0 1
    outer loop
      vertex 8.90603 4.32731 8
      vertex 13.1239 5.28758 8
      vertex 8.02957 11.0823 8
    endloop
  endfacet
  facet normal 0 0 1
    outer loop
      vertex 13.1239 5.28758 8
      vertex 8.90603 4.32731 8
      vertex 10.5445 3.38131 8
    endloop
  endfacet
  facet normal -0 0 1
    outer loop
      vertex 6 9.60769 8
      vertex 8.90603 4.32731 8
      vertex 8.02957 11.0823 8
    endloop
  endfacet
  facet normal 0 0 1
    outer loop
      vertex 8.90603 4.32731 8
      vertex 6 9.60769 8
      vertex 7.02439 4.52507 8
    endloop
  endfacet
  facet normal -0 0 1
    outer loop
      vertex 3.7082 8.58732 8
      vertex 7.02439 4.52507 8
      vertex 6 9.60769 8
    endloop
  endfacet
  facet normal 0 0 1
    outer loop
      vertex 7.02439 4.52507 8
      vertex 3.7082 8.58732 8
      vertex 5.225 3.94042 8
    endloop
  endfacet
  facet normal -0 0 1
    outer loop
      vertex 1.25434 8.06574 8
      vertex 5.225 3.94042 8
      vertex 3.7082 8.58732 8
    endloop
  endfacet
  facet normal 0 0 1
    outer loop
      vertex 5.225 3.94042 8
      vertex 1.25434 8.06574 8
      vertex 3.81897 2.67442 8
    endloop
  endfacet
  facet normal 0 0 1
    outer loop
      vertex 3.81897 2.67442 8
      vertex -1.25434 8.06574 8
      vertex 3.04943 0.945998 8
    endloop
  endfacet
  facet normal -0 0 1
    outer loop
      vertex -1.25434 8.06574 8
      vertex 3.81897 2.67442 8
      vertex 1.25434 8.06574 8
    endloop
  endfacet
  facet normal 0 0 1
    outer loop
      vertex 16.3013 -9.66088 8
      vertex 17.3939 -12.6374 8
      vertex 18.2817 -11.0997 8
    endloop
  endfacet
  facet normal 0 0 1
    outer loop
      vertex 9.7082 -12.9466 8
      vertex 16.3013 -9.66088 8
      vertex 14.4828 -7.64121 8
    endloop
  endfacet
  facet normal 0 -0 1
    outer loop
      vertex 10.9625 -15.1192 8
      vertex 16.3013 -9.66088 8
      vertex 9.7082 -12.9466 8
    endloop
  endfacet
  facet normal 0 0 1
    outer loop
      vertex 8.02957 -11.0823 8
      vertex 14.4828 -7.64121 8
      vertex 13.1239 -5.28758 8
    endloop
  endfacet
  facet normal -0 0 1
    outer loop
      vertex 10.5445 -3.38131 8
      vertex 13.1239 -5.28758 8
      vertex 12.2841 -2.70285 8
    endloop
  endfacet
  facet normal 0 0 1
    outer loop
      vertex 16.3013 -9.66088 8
      vertex 14.3863 -15.9776 8
      vertex 17.3939 -12.6374 8
    endloop
  endfacet
  facet normal -0 0 1
    outer loop
      vertex 11.6566 -1.85065 8
      vertex 12.2841 -2.70285 8
      vertex 12.0165 -0.157398 8
    endloop
  endfacet
  facet normal 0 0 1
    outer loop
      vertex 14.3863 -15.9776 8
      vertex 11.7378 -17.5051 8
      vertex 11.7765 -17.8737 8
    endloop
  endfacet
  facet normal 0 0 1
    outer loop
      vertex 10.5445 -3.38131 8
      vertex 12.2841 -2.70285 8
      vertex 11.6566 -1.85065 8
    endloop
  endfacet
  facet normal 0 0 1
    outer loop
      vertex 14.3863 -15.9776 8
      vertex 10.9625 -15.1192 8
      vertex 11.7378 -17.5051 8
    endloop
  endfacet
  facet normal -0 0 1
    outer loop
      vertex 8.90603 -4.32731 8
      vertex 13.1239 -5.28758 8
      vertex 10.5445 -3.38131 8
    endloop
  endfacet
  facet normal 0 0 1
    outer loop
      vertex 16.3013 -9.66088 8
      vertex 10.9625 -15.1192 8
      vertex 14.3863 -15.9776 8
    endloop
  endfacet
  facet normal 0 0 1
    outer loop
      vertex 13.1239 -5.28758 8
      vertex 8.90603 -4.32731 8
      vertex 8.02957 -11.0823 8
    endloop
  endfacet
  facet normal 0 0 1
    outer loop
      vertex 14.4828 -7.64121 8
      vertex 8.02957 -11.0823 8
      vertex 9.7082 -12.9466 8
    endloop
  endfacet
  facet normal 0 0 1
    outer loop
      vertex 6 -9.60769 8
      vertex 8.90603 -4.32731 8
      vertex 7.02439 -4.52507 8
    endloop
  endfacet
  facet normal 0 0 1
    outer loop
      vertex 8.90603 -4.32731 8
      vertex 6 -9.60769 8
      vertex 8.02957 -11.0823 8
    endloop
  endfacet
  facet normal 0 0 1
    outer loop
      vertex 3.7082 -8.58732 8
      vertex 7.02439 -4.52507 8
      vertex 5.225 -3.94042 8
    endloop
  endfacet
  facet normal 0 0 1
    outer loop
      vertex 1.25434 -8.06574 8
      vertex 5.225 -3.94042 8
      vertex 3.81897 -2.67442 8
    endloop
  endfacet
  facet normal 0 0 1
    outer loop
      vertex 7.02439 -4.52507 8
      vertex 3.7082 -8.58732 8
      vertex 6 -9.60769 8
    endloop
  endfacet
  facet normal 0 0 1
    outer loop
      vertex -1.25434 -8.06574 8
      vertex 3.81897 -2.67442 8
      vertex 3.04943 -0.945998 8
    endloop
  endfacet
  facet normal -0 0 1
    outer loop
      vertex -8.26223 2.49494 8
      vertex 3.04943 0.945998 8
      vertex -1.25434 8.06574 8
    endloop
  endfacet
  facet normal 0 0 1
    outer loop
      vertex 5.225 -3.94042 8
      vertex 1.25434 -8.06574 8
      vertex 3.7082 -8.58732 8
    endloop
  endfacet
  facet normal 0 -0 1
    outer loop
      vertex -8 0 8
      vertex 3.04943 0.945998 8
      vertex -8.26223 2.49494 8
    endloop
  endfacet
  facet normal 0 0 1
    outer loop
      vertex -8.26223 -2.49494 8
      vertex 3.04943 -0.945998 8
      vertex -8 0 8
    endloop
  endfacet
  facet normal 0 0 1
    outer loop
      vertex -8.26223 2.49494 8
      vertex -1.25434 8.06574 8
      vertex -3.7082 8.58732 8
    endloop
  endfacet
  facet normal 0 0 1
    outer loop
      vertex 3.81897 -2.67442 8
      vertex -1.25434 -8.06574 8
      vertex 1.25434 -8.06574 8
    endloop
  endfacet
  facet normal 0 0 1
    outer loop
      vertex 3.04943 -0.945998 8
      vertex -8.26223 -2.49494 8
      vertex -1.25434 -8.06574 8
    endloop
  endfacet
  facet normal 0 0 1
    outer loop
      vertex -9.03745 4.88084 8
      vertex -3.7082 8.58732 8
      vertex -6 9.60769 8
    endloop
  endfacet
  facet normal 0 0 1
    outer loop
      vertex -1.25434 -8.06574 8
      vertex -8.26223 -2.49494 8
      vertex -3.7082 -8.58732 8
    endloop
  endfacet
  facet normal -0 0 1
    outer loop
      vertex -9.03745 -4.88084 8
      vertex -3.7082 -8.58732 8
      vertex -8.26223 -2.49494 8
    endloop
  endfacet
  facet normal 0 0 1
    outer loop
      vertex -3.7082 -8.58732 8
      vertex -9.03745 -4.88084 8
      vertex -6 -9.60769 8
    endloop
  endfacet
  facet normal -0 0 1
    outer loop
      vertex -10.2918 -7.05342 8
      vertex -6 -9.60769 8
      vertex -9.03745 -4.88084 8
    endloop
  endfacet
  facet normal 0 0 1
    outer loop
      vertex -6 -9.60769 8
      vertex -10.2918 -7.05342 8
      vertex -8.02957 -11.0823 8
    endloop
  endfacet
  facet normal -0 0 1
    outer loop
      vertex -11.9704 -8.91774 8
      vertex -8.02957 -11.0823 8
      vertex -10.2918 -7.05342 8
    endloop
  endfacet
  facet normal 0 0 1
    outer loop
      vertex -8.02957 -11.0823 8
      vertex -11.9704 -8.91774 8
      vertex -9.7082 -12.9466 8
    endloop
  endfacet
  facet normal -0 0 1
    outer loop
      vertex -14 -10.3923 8
      vertex -9.7082 -12.9466 8
      vertex -11.9704 -8.91774 8
    endloop
  endfacet
  facet normal 0 0 1
    outer loop
      vertex -9.7082 -12.9466 8
      vertex -14 -10.3923 8
      vertex -10.9625 -15.1192 8
    endloop
  endfacet
  facet normal 0 0 1
    outer loop
      vertex -14.3863 -15.9776 8
      vertex -10.9625 -15.1192 8
      vertex -14 -10.3923 8
    endloop
  endfacet
  facet normal 0 0 1
    outer loop
      vertex -10.9625 -15.1192 8
      vertex -14.3863 -15.9776 8
      vertex -11.7378 -17.5051 8
    endloop
  endfacet
  facet normal 0 0 1
    outer loop
      vertex -11.7378 -17.5051 8
      vertex -14.3863 -15.9776 8
      vertex -11.7765 -17.8737 8
    endloop
  endfacet
  facet normal -0 0 1
    outer loop
      vertex -16.2918 -11.4127 8
      vertex -14.3863 -15.9776 8
      vertex -14 -10.3923 8
    endloop
  endfacet
  facet normal 0 0 1
    outer loop
      vertex -16.2918 -11.4127 8
      vertex -17.3939 -12.6374 8
      vertex -14.3863 -15.9776 8
    endloop
  endfacet
  facet normal 0 -0 1
    outer loop
      vertex -17.3939 -12.6374 8
      vertex -16.2918 -11.4127 8
      vertex -17.9032 -11.7552 8
    endloop
  endfacet
  facet normal 0 0 1
    outer loop
      vertex -10.2918 7.05342 8
      vertex -6 9.60769 8
      vertex -8.02957 11.0823 8
    endloop
  endfacet
  facet normal 0 0 1
    outer loop
      vertex 3.04943 0.945998 8
      vertex -8 0 8
      vertex 3.04943 -0.945998 8
    endloop
  endfacet
  facet normal 0 0 1
    outer loop
      vertex -3.7082 8.58732 8
      vertex -9.03745 4.88084 8
      vertex -8.26223 2.49494 8
    endloop
  endfacet
  facet normal 0 0 1
    outer loop
      vertex -11.9704 8.91774 8
      vertex -8.02957 11.0823 8
      vertex -9.7082 12.9466 8
    endloop
  endfacet
  facet normal 0 0 1
    outer loop
      vertex -6 9.60769 8
      vertex -10.2918 7.05342 8
      vertex -9.03745 4.88084 8
    endloop
  endfacet
  facet normal 0 0 1
    outer loop
      vertex -14 10.3923 8
      vertex -9.7082 12.9466 8
      vertex -10.9625 15.1192 8
    endloop
  endfacet
  facet normal -0 0 1
    outer loop
      vertex -14.3863 15.9776 8
      vertex -10.9625 15.1192 8
      vertex -11.7378 17.5051 8
    endloop
  endfacet
  facet normal 0 0 1
    outer loop
      vertex -8.02957 11.0823 8
      vertex -11.9704 8.91774 8
      vertex -10.2918 7.05342 8
    endloop
  endfacet
  facet normal 0 0 1
    outer loop
      vertex -14.3863 15.9776 8
      vertex -11.7378 17.5051 8
      vertex -11.7765 17.8737 8
    endloop
  endfacet
  facet normal 0 0 1
    outer loop
      vertex -9.7082 12.9466 8
      vertex -14 10.3923 8
      vertex -11.9704 8.91774 8
    endloop
  endfacet
  facet normal 0 0 1
    outer loop
      vertex -10.9625 15.1192 8
      vertex -14.3863 15.9776 8
      vertex -14 10.3923 8
    endloop
  endfacet
  facet normal 0 0 1
    outer loop
      vertex -14.3863 15.9776 8
      vertex -16.2918 11.4127 8
      vertex -14 10.3923 8
    endloop
  endfacet
  facet normal -0 0 1
    outer loop
      vertex -17.3939 12.6374 8
      vertex -16.2918 11.4127 8
      vertex -14.3863 15.9776 8
    endloop
  endfacet
  facet normal 0 0 1
    outer loop
      vertex -16.2918 11.4127 8
      vertex -17.3939 12.6374 8
      vertex -17.9032 11.7552 8
    endloop
  endfacet
  facet normal 0 0 -1
    outer loop
      vertex -11.7378 -17.5051 0
      vertex -11.8145 -16.2612 0
      vertex -11.4174 -16.5191 0
    endloop
  endfacet
  facet normal 0 0 -1
    outer loop
      vertex -14.3863 -15.9776 0
      vertex -11.7378 -17.5051 0
      vertex -11.7765 -17.8737 0
    endloop
  endfacet
  facet normal 0 0 -1
    outer loop
      vertex -11.7378 -17.5051 0
      vertex -14.3863 -15.9776 0
      vertex -11.8145 -16.2612 0
    endloop
  endfacet
  facet normal 0 0 -1
    outer loop
      vertex -11.8145 -16.2612 0
      vertex -14.3863 -15.9776 0
      vertex -13.4495 -14.9372 0
    endloop
  endfacet
  facet normal 0 0 -1
    outer loop
      vertex -14.3863 -15.9776 0
      vertex -14.9372 -13.4495 0
      vertex -13.4495 -14.9372 0
    endloop
  endfacet
  facet normal 0 0 -1
    outer loop
      vertex -17.3939 -12.6374 0
      vertex -14.9372 -13.4495 0
      vertex -14.3863 -15.9776 0
    endloop
  endfacet
  facet normal 0 0 -1
    outer loop
      vertex -14.9372 -13.4495 0
      vertex -17.3939 -12.6374 0
      vertex -16.2612 -11.8145 0
    endloop
  endfacet
  facet normal -0 0 -1
    outer loop
      vertex -16.2612 -11.8145 0
      vertex -17.3939 -12.6374 0
      vertex -16.4942 -11.4557 0
    endloop
  endfacet
  facet normal 0 0 -1
    outer loop
      vertex -16.4942 -11.4557 0
      vertex -17.3939 -12.6374 0
      vertex -17.9032 -11.7552 0
    endloop
  endfacet
  facet normal 0 0 -1
    outer loop
      vertex 16.2612 11.8145 0
      vertex 18.2817 11.0997 0
      vertex 17.2243 10.3315 0
    endloop
  endfacet
  facet normal 0 0 -1
    outer loop
      vertex 18.2817 11.0997 0
      vertex 16.2612 11.8145 0
      vertex 17.3939 12.6374 0
    endloop
  endfacet
  facet normal 0 0 -1
    outer loop
      vertex 14.9372 13.4495 0
      vertex 17.3939 12.6374 0
      vertex 16.2612 11.8145 0
    endloop
  endfacet
  facet normal 0 0 -1
    outer loop
      vertex 14.9372 13.4495 0
      vertex 14.3863 15.9776 0
      vertex 17.3939 12.6374 0
    endloop
  endfacet
  facet normal 0 0 -1
    outer loop
      vertex 13.4495 14.9372 0
      vertex 14.3863 15.9776 0
      vertex 14.9372 13.4495 0
    endloop
  endfacet
  facet normal 0 0 -1
    outer loop
      vertex 11.8145 16.2612 0
      vertex 14.3863 15.9776 0
      vertex 13.4495 14.9372 0
    endloop
  endfacet
  facet normal 0 0 -1
    outer loop
      vertex 11.7378 17.5051 0
      vertex 14.3863 15.9776 0
      vertex 11.8145 16.2612 0
    endloop
  endfacet
  facet normal 0 0 -1
    outer loop
      vertex 14.3863 15.9776 0
      vertex 11.7378 17.5051 0
      vertex 11.7765 17.8737 0
    endloop
  endfacet
  facet normal 0 -0 -1
    outer loop
      vertex 11.7378 17.5051 0
      vertex 11.8145 16.2612 0
      vertex 11.4174 16.5191 0
    endloop
  endfacet
  facet normal 0 0 -1
    outer loop
      vertex -11.8145 16.2612 0
      vertex -11.7378 17.5051 0
      vertex -11.4174 16.5191 0
    endloop
  endfacet
  facet normal 0 0 -1
    outer loop
      vertex -14.3863 15.9776 0
      vertex -11.7378 17.5051 0
      vertex -11.8145 16.2612 0
    endloop
  endfacet
  facet normal 0 0 -1
    outer loop
      vertex -14.3863 15.9776 0
      vertex -11.8145 16.2612 0
      vertex -13.4495 14.9372 0
    endloop
  endfacet
  facet normal -0 0 -1
    outer loop
      vertex -11.7378 17.5051 0
      vertex -14.3863 15.9776 0
      vertex -11.7765 17.8737 0
    endloop
  endfacet
  facet normal 0 0 -1
    outer loop
      vertex -14.9372 13.4495 0
      vertex -14.3863 15.9776 0
      vertex -13.4495 14.9372 0
    endloop
  endfacet
  facet normal 0 0 -1
    outer loop
      vertex -17.3939 12.6374 0
      vertex -14.9372 13.4495 0
      vertex -16.2612 11.8145 0
    endloop
  endfacet
  facet normal 0 0 -1
    outer loop
      vertex -17.3939 12.6374 0
      vertex -16.2612 11.8145 0
      vertex -16.4942 11.4557 0
    endloop
  endfacet
  facet normal -0 0 -1
    outer loop
      vertex -14.9372 13.4495 0
      vertex -17.3939 12.6374 0
      vertex -14.3863 15.9776 0
    endloop
  endfacet
  facet normal 0 -0 -1
    outer loop
      vertex -17.3939 12.6374 0
      vertex -16.4942 11.4557 0
      vertex -17.9032 11.7552 0
    endloop
  endfacet
  facet normal 0 0 -1
    outer loop
      vertex 16.2612 -11.8145 0
      vertex 18.2817 -11.0997 0
      vertex 17.3939 -12.6374 0
    endloop
  endfacet
  facet normal -0 0 -1
    outer loop
      vertex 18.2817 -11.0997 0
      vertex 16.2612 -11.8145 0
      vertex 17.2243 -10.3315 0
    endloop
  endfacet
  facet normal -0 0 -1
    outer loop
      vertex 17.3939 -12.6374 0
      vertex 14.9372 -13.4495 0
      vertex 16.2612 -11.8145 0
    endloop
  endfacet
  facet normal 0 0 -1
    outer loop
      vertex 14.3863 -15.9776 0
      vertex 14.9372 -13.4495 0
      vertex 17.3939 -12.6374 0
    endloop
  endfacet
  facet normal 0 0 -1
    outer loop
      vertex 14.3863 -15.9776 0
      vertex 13.4495 -14.9372 0
      vertex 14.9372 -13.4495 0
    endloop
  endfacet
  facet normal -0 0 -1
    outer loop
      vertex 14.3863 -15.9776 0
      vertex 11.8145 -16.2612 0
      vertex 13.4495 -14.9372 0
    endloop
  endfacet
  facet normal 0 0 -1
    outer loop
      vertex 11.7378 -17.5051 0
      vertex 14.3863 -15.9776 0
      vertex 11.7765 -17.8737 0
    endloop
  endfacet
  facet normal 0 0 -1
    outer loop
      vertex 14.3863 -15.9776 0
      vertex 11.7378 -17.5051 0
      vertex 11.8145 -16.2612 0
    endloop
  endfacet
  facet normal 0 0 -1
    outer loop
      vertex 11.8145 -16.2612 0
      vertex 11.7378 -17.5051 0
      vertex 11.4174 -16.5191 0
    endloop
  endfacet
  facet normal 0.866025 -0.500001 0
    outer loop
      vertex 17.3939 -12.6374 8
      vertex 18.2817 -11.0997 0
      vertex 18.2817 -11.0997 8
    endloop
  endfacet
  facet normal 0.866025 -0.500001 0
    outer loop
      vertex 18.2817 -11.0997 0
      vertex 17.3939 -12.6374 8
      vertex 17.3939 -12.6374 0
    endloop
  endfacet
  facet normal -0.866025 -0.500001 0
    outer loop
      vertex -17.3939 -12.6374 0
      vertex -17.9032 -11.7552 8
      vertex -17.9032 -11.7552 0
    endloop
  endfacet
  facet normal -0.866025 -0.500001 0
    outer loop
      vertex -17.9032 -11.7552 8
      vertex -17.3939 -12.6374 0
      vertex -17.3939 -12.6374 8
    endloop
  endfacet
  facet normal -0.743145 -0.66913 0
    outer loop
      vertex -14.3863 -15.9776 0
      vertex -17.3939 -12.6374 8
      vertex -17.3939 -12.6374 0
    endloop
  endfacet
  facet normal -0.743145 -0.66913 0
    outer loop
      vertex -17.3939 -12.6374 8
      vertex -14.3863 -15.9776 0
      vertex -14.3863 -15.9776 8
    endloop
  endfacet
  facet normal 0.587785 -0.809017 0
    outer loop
      vertex 11.7765 -17.8737 0
      vertex 14.3863 -15.9776 8
      vertex 11.7765 -17.8737 8
    endloop
  endfacet
  facet normal 0.587785 -0.809017 0
    outer loop
      vertex 14.3863 -15.9776 8
      vertex 11.7765 -17.8737 0
      vertex 14.3863 -15.9776 0
    endloop
  endfacet
  facet normal 0.743145 -0.66913 0
    outer loop
      vertex 14.3863 -15.9776 8
      vertex 17.3939 -12.6374 0
      vertex 17.3939 -12.6374 8
    endloop
  endfacet
  facet normal 0.743145 -0.66913 0
    outer loop
      vertex 17.3939 -12.6374 0
      vertex 14.3863 -15.9776 8
      vertex 14.3863 -15.9776 0
    endloop
  endfacet
  facet normal -0.587785 -0.809017 0
    outer loop
      vertex -14.3863 -15.9776 0
      vertex -11.7765 -17.8737 8
      vertex -14.3863 -15.9776 8
    endloop
  endfacet
  facet normal -0.587785 -0.809017 -0
    outer loop
      vertex -11.7765 -17.8737 8
      vertex -14.3863 -15.9776 0
      vertex -11.7765 -17.8737 0
    endloop
  endfacet
  facet normal 0.978148 0.207912 0
    outer loop
      vertex 12.0165 0.157398 12
      vertex 11.6566 1.85065 8
      vertex 11.6566 1.85065 12
    endloop
  endfacet
  facet normal 0.978148 0.207912 0
    outer loop
      vertex 11.6566 1.85065 8
      vertex 12.0165 0.157398 12
      vertex 12.0165 0.157398 8
    endloop
  endfacet
  facet normal -1 0 0
    outer loop
      vertex 3.04943 -0.945998 8
      vertex 3.04943 0.945998 12
      vertex 3.04943 0.945998 8
    endloop
  endfacet
  facet normal -1 -0 0
    outer loop
      vertex 3.04943 0.945998 12
      vertex 3.04943 -0.945998 8
      vertex 3.04943 -0.945998 12
    endloop
  endfacet
  facet normal 0.104528 0.994522 -0
    outer loop
      vertex 8.90603 4.32731 8
      vertex 7.02439 4.52507 12
      vertex 8.90603 4.32731 12
    endloop
  endfacet
  facet normal 0.104528 0.994522 0
    outer loop
      vertex 7.02439 4.52507 12
      vertex 8.90603 4.32731 8
      vertex 7.02439 4.52507 8
    endloop
  endfacet
  facet normal 0 0 1
    outer loop
      vertex 11.05 0 12
      vertex 12.0165 0.157398 12
      vertex 11.6566 1.85065 12
    endloop
  endfacet
  facet normal 0 0 1
    outer loop
      vertex 12.0165 0.157398 12
      vertex 11.05 0 12
      vertex 12 0 12
    endloop
  endfacet
  facet normal 0 0 1
    outer loop
      vertex 12 0 12
      vertex 11.05 0 12
      vertex 12.0165 -0.157398 12
    endloop
  endfacet
  facet normal 0 0 1
    outer loop
      vertex 12.0165 -0.157398 12
      vertex 11.05 0 12
      vertex 11.6566 -1.85065 12
    endloop
  endfacet
  facet normal 0 0 1
    outer loop
      vertex 11.6566 1.85065 12
      vertex 10.5744 1.775 12
      vertex 11.05 0 12
    endloop
  endfacet
  facet normal 0 0 1
    outer loop
      vertex 10.5445 3.38131 12
      vertex 10.5744 1.775 12
      vertex 11.6566 1.85065 12
    endloop
  endfacet
  facet normal 0 0 1
    outer loop
      vertex 10.5445 3.38131 12
      vertex 9.275 3.07439 12
      vertex 10.5744 1.775 12
    endloop
  endfacet
  facet normal 0 0 1
    outer loop
      vertex 8.90603 4.32731 12
      vertex 9.275 3.07439 12
      vertex 10.5445 3.38131 12
    endloop
  endfacet
  facet normal 0 0 1
    outer loop
      vertex 8.90603 4.32731 12
      vertex 7.5 3.55 12
      vertex 9.275 3.07439 12
    endloop
  endfacet
  facet normal 0 0 1
    outer loop
      vertex 7.02439 4.52507 12
      vertex 7.5 3.55 12
      vertex 8.90603 4.32731 12
    endloop
  endfacet
  facet normal 0 0 1
    outer loop
      vertex 7.02439 4.52507 12
      vertex 5.725 3.07439 12
      vertex 7.5 3.55 12
    endloop
  endfacet
  facet normal -0 0 1
    outer loop
      vertex 5.225 3.94042 12
      vertex 5.725 3.07439 12
      vertex 7.02439 4.52507 12
    endloop
  endfacet
  facet normal 0 0 1
    outer loop
      vertex 3.81897 2.67442 12
      vertex 5.725 3.07439 12
      vertex 5.225 3.94042 12
    endloop
  endfacet
  facet normal 0 0 1
    outer loop
      vertex 3.04943 0.945998 12
      vertex 4.42561 1.775 12
      vertex 3.81897 2.67442 12
    endloop
  endfacet
  facet normal 0 0 1
    outer loop
      vertex 5.725 3.07439 12
      vertex 3.81897 2.67442 12
      vertex 4.42561 1.775 12
    endloop
  endfacet
  facet normal -0 0 1
    outer loop
      vertex 10.5744 -1.775 12
      vertex 11.6566 -1.85065 12
      vertex 11.05 0 12
    endloop
  endfacet
  facet normal 0 0 1
    outer loop
      vertex 10.5744 -1.775 12
      vertex 10.5445 -3.38131 12
      vertex 11.6566 -1.85065 12
    endloop
  endfacet
  facet normal -0 0 1
    outer loop
      vertex 9.275 -3.07439 12
      vertex 10.5445 -3.38131 12
      vertex 10.5744 -1.775 12
    endloop
  endfacet
  facet normal 0 0 1
    outer loop
      vertex 9.275 -3.07439 12
      vertex 8.90603 -4.32731 12
      vertex 10.5445 -3.38131 12
    endloop
  endfacet
  facet normal -0 0 1
    outer loop
      vertex 7.5 -3.55 12
      vertex 8.90603 -4.32731 12
      vertex 9.275 -3.07439 12
    endloop
  endfacet
  facet normal 0 0 1
    outer loop
      vertex 7.5 -3.55 12
      vertex 7.02439 -4.52507 12
      vertex 8.90603 -4.32731 12
    endloop
  endfacet
  facet normal 0 0 1
    outer loop
      vertex 5.725 -3.07439 12
      vertex 7.02439 -4.52507 12
      vertex 7.5 -3.55 12
    endloop
  endfacet
  facet normal 0 0 1
    outer loop
      vertex 5.725 -3.07439 12
      vertex 5.225 -3.94042 12
      vertex 7.02439 -4.52507 12
    endloop
  endfacet
  facet normal -0 0 1
    outer loop
      vertex 3.81897 -2.67442 12
      vertex 5.725 -3.07439 12
      vertex 4.42561 -1.775 12
    endloop
  endfacet
  facet normal 0 0 1
    outer loop
      vertex 5.725 -3.07439 12
      vertex 3.81897 -2.67442 12
      vertex 5.225 -3.94042 12
    endloop
  endfacet
  facet normal -0 0 1
    outer loop
      vertex 3.04943 -0.945998 12
      vertex 4.42561 -1.775 12
      vertex 3.95 0 12
    endloop
  endfacet
  facet normal 0 0 1
    outer loop
      vertex 4.42561 1.775 12
      vertex 3.04943 0.945998 12
      vertex 3.95 0 12
    endloop
  endfacet
  facet normal 0 0 1
    outer loop
      vertex 3.04943 -0.945998 12
      vertex 3.95 0 12
      vertex 3.04943 0.945998 12
    endloop
  endfacet
  facet normal 0 0 1
    outer loop
      vertex 4.42561 -1.775 12
      vertex 3.04943 -0.945998 12
      vertex 3.81897 -2.67442 12
    endloop
  endfacet
  facet normal 0.809017 -0.587785 0
    outer loop
      vertex 10.5445 -3.38131 12
      vertex 11.6566 -1.85065 8
      vertex 11.6566 -1.85065 12
    endloop
  endfacet
  facet normal 0.809017 -0.587785 0
    outer loop
      vertex 11.6566 -1.85065 8
      vertex 10.5445 -3.38131 12
      vertex 10.5445 -3.38131 8
    endloop
  endfacet
  facet normal 0.5 -0.866025 0
    outer loop
      vertex 8.90603 -4.32731 8
      vertex 10.5445 -3.38131 12
      vertex 8.90603 -4.32731 12
    endloop
  endfacet
  facet normal 0.5 -0.866025 0
    outer loop
      vertex 10.5445 -3.38131 12
      vertex 8.90603 -4.32731 8
      vertex 10.5445 -3.38131 8
    endloop
  endfacet
  facet normal 0.104528 -0.994522 0
    outer loop
      vertex 7.02439 -4.52507 8
      vertex 8.90603 -4.32731 12
      vertex 7.02439 -4.52507 12
    endloop
  endfacet
  facet normal 0.104528 -0.994522 0
    outer loop
      vertex 8.90603 -4.32731 12
      vertex 7.02439 -4.52507 8
      vertex 8.90603 -4.32731 8
    endloop
  endfacet
  facet normal 0.5 0.866025 -0
    outer loop
      vertex 10.5445 3.38131 8
      vertex 8.90603 4.32731 12
      vertex 10.5445 3.38131 12
    endloop
  endfacet
  facet normal 0.5 0.866025 0
    outer loop
      vertex 8.90603 4.32731 12
      vertex 10.5445 3.38131 8
      vertex 8.90603 4.32731 8
    endloop
  endfacet
  facet normal 0.809017 0.587785 0
    outer loop
      vertex 11.6566 1.85065 12
      vertex 10.5445 3.38131 8
      vertex 10.5445 3.38131 12
    endloop
  endfacet
  facet normal 0.809017 0.587785 0
    outer loop
      vertex 10.5445 3.38131 8
      vertex 11.6566 1.85065 12
      vertex 11.6566 1.85065 8
    endloop
  endfacet
  facet normal -0.309017 0.951057 0
    outer loop
      vertex 7.02439 4.52507 8
      vertex 5.225 3.94042 12
      vertex 7.02439 4.52507 12
    endloop
  endfacet
  facet normal -0.309017 0.951057 0
    outer loop
      vertex 5.225 3.94042 12
      vertex 7.02439 4.52507 8
      vertex 5.225 3.94042 8
    endloop
  endfacet
  facet normal -0.669131 0.743145 0
    outer loop
      vertex 5.225 3.94042 8
      vertex 3.81897 2.67442 12
      vertex 5.225 3.94042 12
    endloop
  endfacet
  facet normal -0.669131 0.743145 0
    outer loop
      vertex 3.81897 2.67442 12
      vertex 5.225 3.94042 8
      vertex 3.81897 2.67442 8
    endloop
  endfacet
  facet normal -0.913545 0.406737 0
    outer loop
      vertex 3.04943 0.945998 8
      vertex 3.81897 2.67442 12
      vertex 3.81897 2.67442 8
    endloop
  endfacet
  facet normal -0.913545 0.406737 0
    outer loop
      vertex 3.81897 2.67442 12
      vertex 3.04943 0.945998 8
      vertex 3.04943 0.945998 12
    endloop
  endfacet
  facet normal -0.913545 -0.406737 0
    outer loop
      vertex 3.81897 -2.67442 8
      vertex 3.04943 -0.945998 12
      vertex 3.04943 -0.945998 8
    endloop
  endfacet
  facet normal -0.913545 -0.406737 0
    outer loop
      vertex 3.04943 -0.945998 12
      vertex 3.81897 -2.67442 8
      vertex 3.81897 -2.67442 12
    endloop
  endfacet
  facet normal -0.309017 -0.951057 0
    outer loop
      vertex 5.225 -3.94042 8
      vertex 7.02439 -4.52507 12
      vertex 5.225 -3.94042 12
    endloop
  endfacet
  facet normal -0.309017 -0.951057 -0
    outer loop
      vertex 7.02439 -4.52507 12
      vertex 5.225 -3.94042 8
      vertex 7.02439 -4.52507 8
    endloop
  endfacet
  facet normal -0.669131 -0.743145 0
    outer loop
      vertex 3.81897 -2.67442 8
      vertex 5.225 -3.94042 12
      vertex 3.81897 -2.67442 12
    endloop
  endfacet
  facet normal -0.669131 -0.743145 -0
    outer loop
      vertex 5.225 -3.94042 12
      vertex 3.81897 -2.67442 8
      vertex 5.225 -3.94042 8
    endloop
  endfacet
  facet normal 0.978148 -0.207912 0
    outer loop
      vertex 11.6566 -1.85065 12
      vertex 12.0165 -0.157398 8
      vertex 12.0165 -0.157398 12
    endloop
  endfacet
  facet normal 0.978148 -0.207912 0
    outer loop
      vertex 12.0165 -0.157398 8
      vertex 11.6566 -1.85065 12
      vertex 11.6566 -1.85065 8
    endloop
  endfacet
  facet normal -0.965926 -0.258819 0
    outer loop
      vertex 11.05 0 9.5
      vertex 10.5744 1.775 12
      vertex 10.5744 1.775 9.5
    endloop
  endfacet
  facet normal -0.965926 -0.258819 0
    outer loop
      vertex 10.5744 1.775 12
      vertex 11.05 0 9.5
      vertex 11.05 0 12
    endloop
  endfacet
  facet normal 0.965926 -0.258819 0
    outer loop
      vertex 3.95 0 12
      vertex 4.42561 1.775 9.5
      vertex 4.42561 1.775 12
    endloop
  endfacet
  facet normal 0.965926 -0.258819 0
    outer loop
      vertex 4.42561 1.775 9.5
      vertex 3.95 0 12
      vertex 3.95 0 9.5
    endloop
  endfacet
  facet normal 0.258819 -0.965926 0
    outer loop
      vertex 5.725 3.07439 9.5
      vertex 7.5 3.55 12
      vertex 5.725 3.07439 12
    endloop
  endfacet
  facet normal 0.258819 -0.965926 0
    outer loop
      vertex 7.5 3.55 12
      vertex 5.725 3.07439 9.5
      vertex 7.5 3.55 9.5
    endloop
  endfacet
  facet normal 0.707107 -0.707107 0
    outer loop
      vertex 4.42561 1.775 12
      vertex 5.725 3.07439 9.5
      vertex 5.725 3.07439 12
    endloop
  endfacet
  facet normal 0.707107 -0.707107 0
    outer loop
      vertex 5.725 3.07439 9.5
      vertex 4.42561 1.775 12
      vertex 4.42561 1.775 9.5
    endloop
  endfacet
  facet normal -0.965926 0.258819 0
    outer loop
      vertex 10.5744 -1.775 9.5
      vertex 11.05 0 12
      vertex 11.05 0 9.5
    endloop
  endfacet
  facet normal -0.965926 0.258819 0
    outer loop
      vertex 11.05 0 12
      vertex 10.5744 -1.775 9.5
      vertex 10.5744 -1.775 12
    endloop
  endfacet
  facet normal -0.258819 -0.965926 0
    outer loop
      vertex 7.5 3.55 9.5
      vertex 9.275 3.07439 12
      vertex 7.5 3.55 12
    endloop
  endfacet
  facet normal -0.258819 -0.965926 -0
    outer loop
      vertex 9.275 3.07439 12
      vertex 7.5 3.55 9.5
      vertex 9.275 3.07439 9.5
    endloop
  endfacet
  facet normal -0.707107 -0.707107 0
    outer loop
      vertex 10.5744 1.775 9.5
      vertex 9.275 3.07439 12
      vertex 9.275 3.07439 9.5
    endloop
  endfacet
  facet normal -0.707107 -0.707107 0
    outer loop
      vertex 9.275 3.07439 12
      vertex 10.5744 1.775 9.5
      vertex 10.5744 1.775 12
    endloop
  endfacet
  facet normal 0.965926 0.258819 0
    outer loop
      vertex 4.42561 -1.775 12
      vertex 3.95 0 9.5
      vertex 3.95 0 12
    endloop
  endfacet
  facet normal 0.965926 0.258819 0
    outer loop
      vertex 3.95 0 9.5
      vertex 4.42561 -1.775 12
      vertex 4.42561 -1.775 9.5
    endloop
  endfacet
  facet normal -0.258819 0.965926 0
    outer loop
      vertex 9.275 -3.07439 9.5
      vertex 7.5 -3.55 12
      vertex 9.275 -3.07439 12
    endloop
  endfacet
  facet normal -0.258819 0.965926 0
    outer loop
      vertex 7.5 -3.55 12
      vertex 9.275 -3.07439 9.5
      vertex 7.5 -3.55 9.5
    endloop
  endfacet
  facet normal 0.707107 0.707107 0
    outer loop
      vertex 5.725 -3.07439 12
      vertex 4.42561 -1.775 9.5
      vertex 4.42561 -1.775 12
    endloop
  endfacet
  facet normal 0.707107 0.707107 0
    outer loop
      vertex 4.42561 -1.775 9.5
      vertex 5.725 -3.07439 12
      vertex 5.725 -3.07439 9.5
    endloop
  endfacet
  facet normal -0.707107 0.707107 0
    outer loop
      vertex 9.275 -3.07439 9.5
      vertex 10.5744 -1.775 12
      vertex 10.5744 -1.775 9.5
    endloop
  endfacet
  facet normal -0.707107 0.707107 0
    outer loop
      vertex 10.5744 -1.775 12
      vertex 9.275 -3.07439 9.5
      vertex 9.275 -3.07439 12
    endloop
  endfacet
  facet normal 0.258819 0.965926 -0
    outer loop
      vertex 7.5 -3.55 9.5
      vertex 5.725 -3.07439 12
      vertex 7.5 -3.55 12
    endloop
  endfacet
  facet normal 0.258819 0.965926 0
    outer loop
      vertex 5.725 -3.07439 12
      vertex 7.5 -3.55 9.5
      vertex 5.725 -3.07439 9.5
    endloop
  endfacet
  facet normal -0.936297 -0.25088 0.245778
    outer loop
      vertex 11.05 0 9.5
      vertex 10.5744 1.775 9.5
      vertex 10 0 5.5
    endloop
  endfacet
  facet normal -0.936297 -0.250881 0.245778
    outer loop
      vertex 10 0 5.5
      vertex 10.5744 1.775 9.5
      vertex 9.66506 1.25 5.5
    endloop
  endfacet
  facet normal -0.936297 0.25088 0.245778
    outer loop
      vertex 10.5744 -1.775 9.5
      vertex 10 0 5.5
      vertex 9.66506 -1.25 5.5
    endloop
  endfacet
  facet normal -0.685417 0.685417 0.245778
    outer loop
      vertex 8.75 -2.16506 5.5
      vertex 10.5744 -1.775 9.5
      vertex 9.66506 -1.25 5.5
    endloop
  endfacet
  facet normal -0.685417 0.685417 0.245778
    outer loop
      vertex 10.5744 -1.775 9.5
      vertex 8.75 -2.16506 5.5
      vertex 9.275 -3.07439 9.5
    endloop
  endfacet
  facet normal -0.936297 0.25088 0.245778
    outer loop
      vertex 10.5744 -1.775 9.5
      vertex 11.05 0 9.5
      vertex 10 0 5.5
    endloop
  endfacet
  facet normal 0.685417 0.685417 0.245778
    outer loop
      vertex 6.25 -2.16506 5.5
      vertex 5.33494 -1.25 5.5
      vertex 4.42561 -1.775 9.5
    endloop
  endfacet
  facet normal 0.936297 0.25088 0.245778
    outer loop
      vertex 5.33494 -1.25 5.5
      vertex 5 0 5.5
      vertex 3.95 0 9.5
    endloop
  endfacet
  facet normal -0.25088 0.936297 0.245778
    outer loop
      vertex 9.275 -3.07439 9.5
      vertex 8.75 -2.16506 5.5
      vertex 7.5 -2.5 5.5
    endloop
  endfacet
  facet normal -0.25088 0.936297 0.245778
    outer loop
      vertex 9.275 -3.07439 9.5
      vertex 7.5 -2.5 5.5
      vertex 7.5 -3.55 9.5
    endloop
  endfacet
  facet normal 0.685417 0.685417 0.245778
    outer loop
      vertex 5.725 -3.07439 9.5
      vertex 6.25 -2.16506 5.5
      vertex 4.42561 -1.775 9.5
    endloop
  endfacet
  facet normal 0.25088 0.936297 0.245778
    outer loop
      vertex 7.5 -2.5 5.5
      vertex 6.25 -2.16506 5.5
      vertex 5.725 -3.07439 9.5
    endloop
  endfacet
  facet normal 0.25088 -0.936297 0.245778
    outer loop
      vertex 6.25 2.16506 5.5
      vertex 7.5 2.5 5.5
      vertex 5.725 3.07439 9.5
    endloop
  endfacet
  facet normal 0.936297 0.25088 0.245778
    outer loop
      vertex 4.42561 -1.775 9.5
      vertex 5.33494 -1.25 5.5
      vertex 3.95 0 9.5
    endloop
  endfacet
  facet normal 0.25088 0.936297 0.245778
    outer loop
      vertex 7.5 -3.55 9.5
      vertex 7.5 -2.5 5.5
      vertex 5.725 -3.07439 9.5
    endloop
  endfacet
  facet normal 0.25088 -0.936297 0.245778
    outer loop
      vertex 7.5 2.5 5.5
      vertex 7.5 3.55 9.5
      vertex 5.725 3.07439 9.5
    endloop
  endfacet
  facet normal 0.936297 -0.25088 0.245778
    outer loop
      vertex 5.33494 1.25 5.5
      vertex 4.42561 1.775 9.5
      vertex 3.95 0 9.5
    endloop
  endfacet
  facet normal -0.25088 -0.936297 0.245778
    outer loop
      vertex 9.275 3.07439 9.5
      vertex 7.5 3.55 9.5
      vertex 7.5 2.5 5.5
    endloop
  endfacet
  facet normal 0.685417 -0.685417 0.245778
    outer loop
      vertex 4.42561 1.775 9.5
      vertex 6.25 2.16506 5.5
      vertex 5.725 3.07439 9.5
    endloop
  endfacet
  facet normal 0.685417 -0.685417 0.245778
    outer loop
      vertex 6.25 2.16506 5.5
      vertex 4.42561 1.775 9.5
      vertex 5.33494 1.25 5.5
    endloop
  endfacet
  facet normal -0.25088 -0.936297 0.245778
    outer loop
      vertex 8.75 2.16506 5.5
      vertex 9.275 3.07439 9.5
      vertex 7.5 2.5 5.5
    endloop
  endfacet
  facet normal 0.936297 -0.25088 0.245778
    outer loop
      vertex 5 0 5.5
      vertex 5.33494 1.25 5.5
      vertex 3.95 0 9.5
    endloop
  endfacet
  facet normal 0 0 -1
    outer loop
      vertex 16.2612 -11.8145 5.5
      vertex 16.3013 -9.66088 5.5
      vertex 17.2243 -10.3315 5.5
    endloop
  endfacet
  facet normal 0 0 -1
    outer loop
      vertex 14.9372 -13.4495 5.5
      vertex 16.3013 -9.66088 5.5
      vertex 16.2612 -11.8145 5.5
    endloop
  endfacet
  facet normal 0 0 -1
    outer loop
      vertex 14.9372 -13.4495 5.5
      vertex 14.4828 -7.64121 5.5
      vertex 16.3013 -9.66088 5.5
    endloop
  endfacet
  facet normal 0 0 -1
    outer loop
      vertex 9.7082 -12.9466 5.5
      vertex 14.9372 -13.4495 5.5
      vertex 13.4495 -14.9372 5.5
    endloop
  endfacet
  facet normal 0 0 -1
    outer loop
      vertex 14.9372 -13.4495 5.5
      vertex 9.7082 -12.9466 5.5
      vertex 14.4828 -7.64121 5.5
    endloop
  endfacet
  facet normal 0 0 -1
    outer loop
      vertex 8.02957 -11.0823 5.5
      vertex 14.4828 -7.64121 5.5
      vertex 9.7082 -12.9466 5.5
    endloop
  endfacet
  facet normal -0 0 -1
    outer loop
      vertex 14.4828 -7.64121 5.5
      vertex 8.02957 -11.0823 5.5
      vertex 13.1239 -5.28758 5.5
    endloop
  endfacet
  facet normal 0 0 -1
    outer loop
      vertex 10.9625 -15.1192 5.5
      vertex 13.4495 -14.9372 5.5
      vertex 11.8145 -16.2612 5.5
    endloop
  endfacet
  facet normal 0 0 -1
    outer loop
      vertex 16.3013 9.66088 5.5
      vertex 16.2612 11.8145 5.5
      vertex 17.2243 10.3315 5.5
    endloop
  endfacet
  facet normal 0 0 -1
    outer loop
      vertex 16.3013 9.66088 5.5
      vertex 14.9372 13.4495 5.5
      vertex 16.2612 11.8145 5.5
    endloop
  endfacet
  facet normal 0 0 -1
    outer loop
      vertex 14.4828 7.64121 5.5
      vertex 14.9372 13.4495 5.5
      vertex 16.3013 9.66088 5.5
    endloop
  endfacet
  facet normal 0 0 -1
    outer loop
      vertex 9.7082 12.9466 5.5
      vertex 14.9372 13.4495 5.5
      vertex 14.4828 7.64121 5.5
    endloop
  endfacet
  facet normal 0 0 -1
    outer loop
      vertex 8.02957 11.0823 5.5
      vertex 14.4828 7.64121 5.5
      vertex 13.1239 5.28758 5.5
    endloop
  endfacet
  facet normal 0 0 -1
    outer loop
      vertex 8.75 2.16506 5.5
      vertex 13.1239 5.28758 5.5
      vertex 12.2841 2.70285 5.5
    endloop
  endfacet
  facet normal 0 0 -1
    outer loop
      vertex 9.66506 1.25 5.5
      vertex 12.2841 2.70285 5.5
      vertex 12 0 5.5
    endloop
  endfacet
  facet normal -0 0 -1
    outer loop
      vertex 14.9372 13.4495 5.5
      vertex 9.7082 12.9466 5.5
      vertex 13.4495 14.9372 5.5
    endloop
  endfacet
  facet normal 0 0 -1
    outer loop
      vertex 9.7082 -12.9466 5.5
      vertex 13.4495 -14.9372 5.5
      vertex 10.9625 -15.1192 5.5
    endloop
  endfacet
  facet normal 0 0 -1
    outer loop
      vertex 10.9625 -15.1192 5.5
      vertex 11.8145 -16.2612 5.5
      vertex 11.4174 -16.5191 5.5
    endloop
  endfacet
  facet normal 0 0 -1
    outer loop
      vertex 9.66506 1.25 5.5
      vertex 12 0 5.5
      vertex 10 0 5.5
    endloop
  endfacet
  facet normal 0 0 -1
    outer loop
      vertex 6 -9.60769 5.5
      vertex 13.1239 -5.28758 5.5
      vertex 8.02957 -11.0823 5.5
    endloop
  endfacet
  facet normal 0 0 -1
    outer loop
      vertex 12.2841 2.70285 5.5
      vertex 9.66506 1.25 5.5
      vertex 8.75 2.16506 5.5
    endloop
  endfacet
  facet normal -0 0 -1
    outer loop
      vertex 11.8145 16.2612 5.5
      vertex 10.9625 15.1192 5.5
      vertex 11.4174 16.5191 5.5
    endloop
  endfacet
  facet normal 0 -0 -1
    outer loop
      vertex 9.66506 -1.25 5.5
      vertex 12.2841 -2.70285 5.5
      vertex 8.75 -2.16506 5.5
    endloop
  endfacet
  facet normal -0 0 -1
    outer loop
      vertex 12 0 5.5
      vertex 9.66506 -1.25 5.5
      vertex 10 0 5.5
    endloop
  endfacet
  facet normal 0 0 -1
    outer loop
      vertex 12.2841 -2.70285 5.5
      vertex 9.66506 -1.25 5.5
      vertex 12 0 5.5
    endloop
  endfacet
  facet normal 0 0 -1
    outer loop
      vertex 13.1239 -5.28758 5.5
      vertex 8.75 -2.16506 5.5
      vertex 12.2841 -2.70285 5.5
    endloop
  endfacet
  facet normal 0 -0 -1
    outer loop
      vertex 7.5 -2.5 5.5
      vertex 13.1239 -5.28758 5.5
      vertex 6 -9.60769 5.5
    endloop
  endfacet
  facet normal 0 0 -1
    outer loop
      vertex 13.1239 -5.28758 5.5
      vertex 7.5 -2.5 5.5
      vertex 8.75 -2.16506 5.5
    endloop
  endfacet
  facet normal 0 0 -1
    outer loop
      vertex 3.7082 -8.58732 5.5
      vertex 7.5 -2.5 5.5
      vertex 6 -9.60769 5.5
    endloop
  endfacet
  facet normal -0 0 -1
    outer loop
      vertex 7.5 -2.5 5.5
      vertex 3.7082 -8.58732 5.5
      vertex 6.25 -2.16506 5.5
    endloop
  endfacet
  facet normal 0 0 -1
    outer loop
      vertex 1.25434 -8.06574 5.5
      vertex 6.25 -2.16506 5.5
      vertex 3.7082 -8.58732 5.5
    endloop
  endfacet
  facet normal -0 0 -1
    outer loop
      vertex 6.25 -2.16506 5.5
      vertex 1.25434 -8.06574 5.5
      vertex 5.33494 -1.25 5.5
    endloop
  endfacet
  facet normal 0 0 -1
    outer loop
      vertex -9.03745 4.88084 5.5
      vertex -3.7082 8.58732 5.5
      vertex -8.26223 2.49494 5.5
    endloop
  endfacet
  facet normal -0 0 -1
    outer loop
      vertex -3.7082 8.58732 5.5
      vertex -9.03745 4.88084 5.5
      vertex -6 9.60769 5.5
    endloop
  endfacet
  facet normal 0 0 -1
    outer loop
      vertex -10.2918 7.05342 5.5
      vertex -6 9.60769 5.5
      vertex -9.03745 4.88084 5.5
    endloop
  endfacet
  facet normal -0 0 -1
    outer loop
      vertex -6 9.60769 5.5
      vertex -10.2918 7.05342 5.5
      vertex -8.02957 11.0823 5.5
    endloop
  endfacet
  facet normal 0 0 -1
    outer loop
      vertex -11.9704 8.91774 5.5
      vertex -8.02957 11.0823 5.5
      vertex -10.2918 7.05342 5.5
    endloop
  endfacet
  facet normal -0 0 -1
    outer loop
      vertex -8.02957 11.0823 5.5
      vertex -11.9704 8.91774 5.5
      vertex -9.7082 12.9466 5.5
    endloop
  endfacet
  facet normal 0 0 -1
    outer loop
      vertex -14 10.3923 5.5
      vertex -9.7082 12.9466 5.5
      vertex -11.9704 8.91774 5.5
    endloop
  endfacet
  facet normal 0 -0 -1
    outer loop
      vertex -13.4495 14.9372 5.5
      vertex -9.7082 12.9466 5.5
      vertex -14 10.3923 5.5
    endloop
  endfacet
  facet normal 0 0 -1
    outer loop
      vertex -10.9625 15.1192 5.5
      vertex -11.8145 16.2612 5.5
      vertex -11.4174 16.5191 5.5
    endloop
  endfacet
  facet normal -0 0 -1
    outer loop
      vertex -10.9625 15.1192 5.5
      vertex -13.4495 14.9372 5.5
      vertex -11.8145 16.2612 5.5
    endloop
  endfacet
  facet normal 0 0 -1
    outer loop
      vertex -9.7082 12.9466 5.5
      vertex -13.4495 14.9372 5.5
      vertex -10.9625 15.1192 5.5
    endloop
  endfacet
  facet normal 0 0 -1
    outer loop
      vertex -14 10.3923 5.5
      vertex -14.9372 13.4495 5.5
      vertex -13.4495 14.9372 5.5
    endloop
  endfacet
  facet normal 0 0 -1
    outer loop
      vertex -14 10.3923 5.5
      vertex -16.2612 11.8145 5.5
      vertex -14.9372 13.4495 5.5
    endloop
  endfacet
  facet normal 0 0 -1
    outer loop
      vertex -16.2918 11.4127 5.5
      vertex -16.2612 11.8145 5.5
      vertex -14 10.3923 5.5
    endloop
  endfacet
  facet normal 0 0 -1
    outer loop
      vertex -16.2612 11.8145 5.5
      vertex -16.2918 11.4127 5.5
      vertex -16.4942 11.4557 5.5
    endloop
  endfacet
  facet normal 0 0 -1
    outer loop
      vertex 13.4495 14.9372 5.5
      vertex 10.9625 15.1192 5.5
      vertex 11.8145 16.2612 5.5
    endloop
  endfacet
  facet normal -0 0 -1
    outer loop
      vertex 13.4495 14.9372 5.5
      vertex 9.7082 12.9466 5.5
      vertex 10.9625 15.1192 5.5
    endloop
  endfacet
  facet normal 0 0 -1
    outer loop
      vertex 7.5 2.5 5.5
      vertex 13.1239 5.28758 5.5
      vertex 8.75 2.16506 5.5
    endloop
  endfacet
  facet normal 0 0 -1
    outer loop
      vertex 14.4828 7.64121 5.5
      vertex 8.02957 11.0823 5.5
      vertex 9.7082 12.9466 5.5
    endloop
  endfacet
  facet normal -0 0 -1
    outer loop
      vertex 13.1239 5.28758 5.5
      vertex 7.5 2.5 5.5
      vertex 6 9.60769 5.5
    endloop
  endfacet
  facet normal 0 0 -1
    outer loop
      vertex 3.7082 8.58732 5.5
      vertex 7.5 2.5 5.5
      vertex 6.25 2.16506 5.5
    endloop
  endfacet
  facet normal 0 0 -1
    outer loop
      vertex 13.1239 5.28758 5.5
      vertex 6 9.60769 5.5
      vertex 8.02957 11.0823 5.5
    endloop
  endfacet
  facet normal 0 0 -1
    outer loop
      vertex 1.25434 8.06574 5.5
      vertex 6.25 2.16506 5.5
      vertex 5.33494 1.25 5.5
    endloop
  endfacet
  facet normal 0 0 -1
    outer loop
      vertex -1.25434 8.06574 5.5
      vertex 5.33494 1.25 5.5
      vertex 5 0 5.5
    endloop
  endfacet
  facet normal 0 0 -1
    outer loop
      vertex -1.25434 -8.06574 5.5
      vertex 5.33494 -1.25 5.5
      vertex 1.25434 -8.06574 5.5
    endloop
  endfacet
  facet normal 0 0 -1
    outer loop
      vertex 7.5 2.5 5.5
      vertex 3.7082 8.58732 5.5
      vertex 6 9.60769 5.5
    endloop
  endfacet
  facet normal -0 0 -1
    outer loop
      vertex 5.33494 -1.25 5.5
      vertex -1.25434 -8.06574 5.5
      vertex 5 0 5.5
    endloop
  endfacet
  facet normal 0 0 -1
    outer loop
      vertex 6.25 2.16506 5.5
      vertex 1.25434 8.06574 5.5
      vertex 3.7082 8.58732 5.5
    endloop
  endfacet
  facet normal -0 0 -1
    outer loop
      vertex 5 0 5.5
      vertex -1.25434 -8.06574 5.5
      vertex -8 0 5.5
    endloop
  endfacet
  facet normal 0 -0 -1
    outer loop
      vertex -1.25434 8.06574 5.5
      vertex 5 0 5.5
      vertex -8 0 5.5
    endloop
  endfacet
  facet normal 0 0 -1
    outer loop
      vertex -8.26223 -2.49494 5.5
      vertex -1.25434 -8.06574 5.5
      vertex -3.7082 -8.58732 5.5
    endloop
  endfacet
  facet normal 0 0 -1
    outer loop
      vertex 5.33494 1.25 5.5
      vertex -1.25434 8.06574 5.5
      vertex 1.25434 8.06574 5.5
    endloop
  endfacet
  facet normal 0 0 -1
    outer loop
      vertex -9.03745 -4.88084 5.5
      vertex -3.7082 -8.58732 5.5
      vertex -6 -9.60769 5.5
    endloop
  endfacet
  facet normal 0 0 -1
    outer loop
      vertex -8.26223 2.49494 5.5
      vertex -1.25434 8.06574 5.5
      vertex -8 0 5.5
    endloop
  endfacet
  facet normal -0 0 -1
    outer loop
      vertex -1.25434 8.06574 5.5
      vertex -8.26223 2.49494 5.5
      vertex -3.7082 8.58732 5.5
    endloop
  endfacet
  facet normal 0 0 -1
    outer loop
      vertex -10.2918 -7.05342 5.5
      vertex -6 -9.60769 5.5
      vertex -8.02957 -11.0823 5.5
    endloop
  endfacet
  facet normal 0 0 -1
    outer loop
      vertex -1.25434 -8.06574 5.5
      vertex -8.26223 -2.49494 5.5
      vertex -8 0 5.5
    endloop
  endfacet
  facet normal 0 0 -1
    outer loop
      vertex -3.7082 -8.58732 5.5
      vertex -9.03745 -4.88084 5.5
      vertex -8.26223 -2.49494 5.5
    endloop
  endfacet
  facet normal 0 0 -1
    outer loop
      vertex -11.9704 -8.91774 5.5
      vertex -8.02957 -11.0823 5.5
      vertex -9.7082 -12.9466 5.5
    endloop
  endfacet
  facet normal 0 0 -1
    outer loop
      vertex -6 -9.60769 5.5
      vertex -10.2918 -7.05342 5.5
      vertex -9.03745 -4.88084 5.5
    endloop
  endfacet
  facet normal 0 0 -1
    outer loop
      vertex -13.4495 -14.9372 5.5
      vertex -9.7082 -12.9466 5.5
      vertex -10.9625 -15.1192 5.5
    endloop
  endfacet
  facet normal 0 0 -1
    outer loop
      vertex -11.8145 -16.2612 5.5
      vertex -10.9625 -15.1192 5.5
      vertex -11.4174 -16.5191 5.5
    endloop
  endfacet
  facet normal 0 0 -1
    outer loop
      vertex -13.4495 -14.9372 5.5
      vertex -10.9625 -15.1192 5.5
      vertex -11.8145 -16.2612 5.5
    endloop
  endfacet
  facet normal 0 0 -1
    outer loop
      vertex -8.02957 -11.0823 5.5
      vertex -11.9704 -8.91774 5.5
      vertex -10.2918 -7.05342 5.5
    endloop
  endfacet
  facet normal -0 0 -1
    outer loop
      vertex -9.7082 -12.9466 5.5
      vertex -13.4495 -14.9372 5.5
      vertex -14 -10.3923 5.5
    endloop
  endfacet
  facet normal 0 0 -1
    outer loop
      vertex -9.7082 -12.9466 5.5
      vertex -14 -10.3923 5.5
      vertex -11.9704 -8.91774 5.5
    endloop
  endfacet
  facet normal 0 0 -1
    outer loop
      vertex -14.9372 -13.4495 5.5
      vertex -14 -10.3923 5.5
      vertex -13.4495 -14.9372 5.5
    endloop
  endfacet
  facet normal 0 0 -1
    outer loop
      vertex -16.2612 -11.8145 5.5
      vertex -14 -10.3923 5.5
      vertex -14.9372 -13.4495 5.5
    endloop
  endfacet
  facet normal 0 0 -1
    outer loop
      vertex -16.2612 -11.8145 5.5
      vertex -16.2918 -11.4127 5.5
      vertex -14 -10.3923 5.5
    endloop
  endfacet
  facet normal 0 -0 -1
    outer loop
      vertex -16.2918 -11.4127 5.5
      vertex -16.2612 -11.8145 5.5
      vertex -16.4942 -11.4557 5.5
    endloop
  endfacet
  facet normal -0.685417 -0.685417 0.245778
    outer loop
      vertex 10.5744 1.775 9.5
      vertex 9.275 3.07439 9.5
      vertex 8.75 2.16506 5.5
    endloop
  endfacet
  facet normal -0.685417 -0.685417 0.245778
    outer loop
      vertex 9.66506 1.25 5.5
      vertex 10.5744 1.775 9.5
      vertex 8.75 2.16506 5.5
    endloop
  endfacet
  facet normal -0.629321 -0.777146 0
    outer loop
      vertex 11.8145 16.2612 0
      vertex 13.4495 14.9372 5.5
      vertex 11.8145 16.2612 5.5
    endloop
  endfacet
  facet normal -0.629321 -0.777146 -0
    outer loop
      vertex 13.4495 14.9372 5.5
      vertex 11.8145 16.2612 0
      vertex 13.4495 14.9372 0
    endloop
  endfacet
  facet normal 0.707107 -0.707107 0
    outer loop
      vertex -14.9372 13.4495 5.5
      vertex -13.4495 14.9372 0
      vertex -13.4495 14.9372 5.5
    endloop
  endfacet
  facet normal 0.707107 -0.707107 0
    outer loop
      vertex -13.4495 14.9372 0
      vertex -14.9372 13.4495 5.5
      vertex -14.9372 13.4495 0
    endloop
  endfacet
  facet normal 0.629321 -0.777146 0
    outer loop
      vertex -13.4495 14.9372 0
      vertex -11.8145 16.2612 5.5
      vertex -13.4495 14.9372 5.5
    endloop
  endfacet
  facet normal 0.629321 -0.777146 0
    outer loop
      vertex -11.8145 16.2612 5.5
      vertex -13.4495 14.9372 0
      vertex -11.8145 16.2612 0
    endloop
  endfacet
  facet normal -0.777146 0.629321 0
    outer loop
      vertex 14.9372 -13.4495 0
      vertex 16.2612 -11.8145 5.5
      vertex 16.2612 -11.8145 0
    endloop
  endfacet
  facet normal -0.777146 0.629321 0
    outer loop
      vertex 16.2612 -11.8145 5.5
      vertex 14.9372 -13.4495 0
      vertex 14.9372 -13.4495 5.5
    endloop
  endfacet
  facet normal 0.707107 0.707107 0
    outer loop
      vertex -13.4495 -14.9372 5.5
      vertex -14.9372 -13.4495 0
      vertex -14.9372 -13.4495 5.5
    endloop
  endfacet
  facet normal 0.707107 0.707107 0
    outer loop
      vertex -14.9372 -13.4495 0
      vertex -13.4495 -14.9372 5.5
      vertex -13.4495 -14.9372 0
    endloop
  endfacet
  facet normal -0.777146 -0.629321 0
    outer loop
      vertex 16.2612 11.8145 0
      vertex 14.9372 13.4495 5.5
      vertex 14.9372 13.4495 0
    endloop
  endfacet
  facet normal -0.777146 -0.629321 0
    outer loop
      vertex 14.9372 13.4495 5.5
      vertex 16.2612 11.8145 0
      vertex 16.2612 11.8145 5.5
    endloop
  endfacet
  facet normal -0.838671 -0.544639 0
    outer loop
      vertex 17.2243 10.3315 0
      vertex 16.2612 11.8145 5.5
      vertex 16.2612 11.8145 0
    endloop
  endfacet
  facet normal -0.838671 -0.544639 0
    outer loop
      vertex 16.2612 11.8145 5.5
      vertex 17.2243 10.3315 0
      vertex 17.2243 10.3315 5.5
    endloop
  endfacet
  facet normal -0.707107 -0.707107 0
    outer loop
      vertex 14.9372 13.4495 0
      vertex 13.4495 14.9372 5.5
      vertex 13.4495 14.9372 0
    endloop
  endfacet
  facet normal -0.707107 -0.707107 0
    outer loop
      vertex 13.4495 14.9372 5.5
      vertex 14.9372 13.4495 0
      vertex 14.9372 13.4495 5.5
    endloop
  endfacet
  facet normal -0.544637 -0.838672 0
    outer loop
      vertex 11.4174 16.5191 0
      vertex 11.8145 16.2612 5.5
      vertex 11.4174 16.5191 5.5
    endloop
  endfacet
  facet normal -0.544637 -0.838672 -0
    outer loop
      vertex 11.8145 16.2612 5.5
      vertex 11.4174 16.5191 0
      vertex 11.8145 16.2612 0
    endloop
  endfacet
  facet normal 0.838672 -0.544636 0
    outer loop
      vertex -16.4942 11.4557 5.5
      vertex -16.2612 11.8145 0
      vertex -16.2612 11.8145 5.5
    endloop
  endfacet
  facet normal 0.838672 -0.544636 0
    outer loop
      vertex -16.2612 11.8145 0
      vertex -16.4942 11.4557 5.5
      vertex -16.4942 11.4557 0
    endloop
  endfacet
  facet normal 0.777146 -0.629321 0
    outer loop
      vertex -16.2612 11.8145 5.5
      vertex -14.9372 13.4495 0
      vertex -14.9372 13.4495 5.5
    endloop
  endfacet
  facet normal 0.777146 -0.629321 0
    outer loop
      vertex -14.9372 13.4495 0
      vertex -16.2612 11.8145 5.5
      vertex -16.2612 11.8145 0
    endloop
  endfacet
  facet normal 0.544637 -0.838672 0
    outer loop
      vertex -11.8145 16.2612 0
      vertex -11.4174 16.5191 5.5
      vertex -11.8145 16.2612 5.5
    endloop
  endfacet
  facet normal 0.544637 -0.838672 0
    outer loop
      vertex -11.4174 16.5191 5.5
      vertex -11.8145 16.2612 0
      vertex -11.4174 16.5191 0
    endloop
  endfacet
  facet normal -0.838671 0.544639 0
    outer loop
      vertex 16.2612 -11.8145 0
      vertex 17.2243 -10.3315 5.5
      vertex 17.2243 -10.3315 0
    endloop
  endfacet
  facet normal -0.838671 0.544639 0
    outer loop
      vertex 17.2243 -10.3315 5.5
      vertex 16.2612 -11.8145 0
      vertex 16.2612 -11.8145 5.5
    endloop
  endfacet
  facet normal -0.629321 0.777146 0
    outer loop
      vertex 13.4495 -14.9372 0
      vertex 11.8145 -16.2612 5.5
      vertex 13.4495 -14.9372 5.5
    endloop
  endfacet
  facet normal -0.629321 0.777146 0
    outer loop
      vertex 11.8145 -16.2612 5.5
      vertex 13.4495 -14.9372 0
      vertex 11.8145 -16.2612 0
    endloop
  endfacet
  facet normal 0.544637 0.838672 -0
    outer loop
      vertex -11.4174 -16.5191 0
      vertex -11.8145 -16.2612 5.5
      vertex -11.4174 -16.5191 5.5
    endloop
  endfacet
  facet normal 0.544637 0.838672 0
    outer loop
      vertex -11.8145 -16.2612 5.5
      vertex -11.4174 -16.5191 0
      vertex -11.8145 -16.2612 0
    endloop
  endfacet
  facet normal 0.777146 0.629321 0
    outer loop
      vertex -14.9372 -13.4495 5.5
      vertex -16.2612 -11.8145 0
      vertex -16.2612 -11.8145 5.5
    endloop
  endfacet
  facet normal 0.777146 0.629321 0
    outer loop
      vertex -16.2612 -11.8145 0
      vertex -14.9372 -13.4495 5.5
      vertex -14.9372 -13.4495 0
    endloop
  endfacet
  facet normal -0.707107 0.707107 0
    outer loop
      vertex 13.4495 -14.9372 0
      vertex 14.9372 -13.4495 5.5
      vertex 14.9372 -13.4495 0
    endloop
  endfacet
  facet normal -0.707107 0.707107 0
    outer loop
      vertex 14.9372 -13.4495 5.5
      vertex 13.4495 -14.9372 0
      vertex 13.4495 -14.9372 5.5
    endloop
  endfacet
  facet normal -0.544637 0.838672 0
    outer loop
      vertex 11.8145 -16.2612 0
      vertex 11.4174 -16.5191 5.5
      vertex 11.8145 -16.2612 5.5
    endloop
  endfacet
  facet normal -0.544637 0.838672 0
    outer loop
      vertex 11.4174 -16.5191 5.5
      vertex 11.8145 -16.2612 0
      vertex 11.4174 -16.5191 0
    endloop
  endfacet
  facet normal 0.629321 0.777146 -0
    outer loop
      vertex -11.8145 -16.2612 0
      vertex -13.4495 -14.9372 5.5
      vertex -11.8145 -16.2612 5.5
    endloop
  endfacet
  facet normal 0.629321 0.777146 0
    outer loop
      vertex -13.4495 -14.9372 5.5
      vertex -11.8145 -16.2612 0
      vertex -13.4495 -14.9372 0
    endloop
  endfacet
  facet normal 0.838672 0.544636 0
    outer loop
      vertex -16.2612 -11.8145 5.5
      vertex -16.4942 -11.4557 0
      vertex -16.4942 -11.4557 5.5
    endloop
  endfacet
  facet normal 0.838672 0.544636 0
    outer loop
      vertex -16.4942 -11.4557 0
      vertex -16.2612 -11.8145 5.5
      vertex -16.2612 -11.8145 0
    endloop
  endfacet
  facet normal 0.743145 -0.669131 0
    outer loop
      vertex 14.4828 7.64121 8
      vertex 16.3013 9.66088 5.5
      vertex 16.3013 9.66088 8
    endloop
  endfacet
  facet normal 0.743145 -0.669131 0
    outer loop
      vertex 16.3013 9.66088 5.5
      vertex 14.4828 7.64121 8
      vertex 14.4828 7.64121 5.5
    endloop
  endfacet
  facet normal 0.951056 -0.309017 0
    outer loop
      vertex 12.2841 2.70285 8
      vertex 13.1239 5.28758 5.5
      vertex 13.1239 5.28758 8
    endloop
  endfacet
  facet normal 0.951056 -0.309017 0
    outer loop
      vertex 13.1239 5.28758 5.5
      vertex 12.2841 2.70285 8
      vertex 12.2841 2.70285 5.5
    endloop
  endfacet
  facet normal 0.866025 -0.5 0
    outer loop
      vertex 13.1239 5.28758 8
      vertex 14.4828 7.64121 5.5
      vertex 14.4828 7.64121 8
    endloop
  endfacet
  facet normal 0.866025 -0.5 0
    outer loop
      vertex 14.4828 7.64121 5.5
      vertex 13.1239 5.28758 8
      vertex 13.1239 5.28758 5.5
    endloop
  endfacet
  facet normal 0.994522 -0.104529 0
    outer loop
      vertex 12.0165 0.157398 12
      vertex 12 0 12
      vertex 12.0165 0.157398 8
    endloop
  endfacet
  facet normal 0.994522 -0.104528 0
    outer loop
      vertex 12.0165 0.157398 8
      vertex 12.2841 2.70285 5.5
      vertex 12.2841 2.70285 8
    endloop
  endfacet
  facet normal 0.994522 -0.104528 -7.55918e-08
    outer loop
      vertex 12.0165 0.157398 8
      vertex 12 0 5.5
      vertex 12.2841 2.70285 5.5
    endloop
  endfacet
  facet normal 0.994522 -0.104529 0
    outer loop
      vertex 12 0 5.5
      vertex 12.0165 0.157398 8
      vertex 12 0 12
    endloop
  endfacet
  facet normal 0.587785 -0.809017 0
    outer loop
      vertex 17.2243 10.3315 5.5
      vertex 16.3013 9.66088 8
      vertex 16.3013 9.66088 5.5
    endloop
  endfacet
  facet normal 0.587785 -0.809017 -1.15899e-07
    outer loop
      vertex 16.3013 9.66088 8
      vertex 17.2243 10.3315 5.5
      vertex 18.2817 11.0997 8
    endloop
  endfacet
  facet normal 0.587785 -0.809017 0
    outer loop
      vertex 18.2817 11.0997 0
      vertex 17.2243 10.3315 5.5
      vertex 17.2243 10.3315 0
    endloop
  endfacet
  facet normal 0.587785 -0.809017 0
    outer loop
      vertex 17.2243 10.3315 5.5
      vertex 18.2817 11.0997 0
      vertex 18.2817 11.0997 8
    endloop
  endfacet
  facet normal 0.743145 0.669131 0
    outer loop
      vertex 16.3013 -9.66088 8
      vertex 14.4828 -7.64121 5.5
      vertex 14.4828 -7.64121 8
    endloop
  endfacet
  facet normal 0.743145 0.669131 0
    outer loop
      vertex 14.4828 -7.64121 5.5
      vertex 16.3013 -9.66088 8
      vertex 16.3013 -9.66088 5.5
    endloop
  endfacet
  facet normal 0.951056 0.309017 0
    outer loop
      vertex 13.1239 -5.28758 8
      vertex 12.2841 -2.70285 5.5
      vertex 12.2841 -2.70285 8
    endloop
  endfacet
  facet normal 0.951056 0.309017 0
    outer loop
      vertex 12.2841 -2.70285 5.5
      vertex 13.1239 -5.28758 8
      vertex 13.1239 -5.28758 5.5
    endloop
  endfacet
  facet normal 0.994522 0.104529 -0
    outer loop
      vertex 12.0165 -0.157398 8
      vertex 12 0 12
      vertex 12.0165 -0.157398 12
    endloop
  endfacet
  facet normal 0.994522 0.104529 0
    outer loop
      vertex 12 0 12
      vertex 12.0165 -0.157398 8
      vertex 12 0 5.5
    endloop
  endfacet
  facet normal 0.994522 0.104528 -0
    outer loop
      vertex 12.2841 -2.70285 5.5
      vertex 12.0165 -0.157398 8
      vertex 12.2841 -2.70285 8
    endloop
  endfacet
  facet normal 0.994522 0.104528 -7.55918e-08
    outer loop
      vertex 12.0165 -0.157398 8
      vertex 12.2841 -2.70285 5.5
      vertex 12 0 5.5
    endloop
  endfacet
  facet normal 0.587785 0.809017 -1.15899e-07
    outer loop
      vertex 18.2817 -11.0997 8
      vertex 17.2243 -10.3315 5.5
      vertex 16.3013 -9.66088 8
    endloop
  endfacet
  facet normal 0.587785 0.809017 -0
    outer loop
      vertex 18.2817 -11.0997 0
      vertex 17.2243 -10.3315 5.5
      vertex 18.2817 -11.0997 8
    endloop
  endfacet
  facet normal 0.587785 0.809017 0
    outer loop
      vertex 17.2243 -10.3315 5.5
      vertex 18.2817 -11.0997 0
      vertex 17.2243 -10.3315 0
    endloop
  endfacet
  facet normal 0.587785 0.809017 0
    outer loop
      vertex 16.3013 -9.66088 8
      vertex 17.2243 -10.3315 5.5
      vertex 16.3013 -9.66088 5.5
    endloop
  endfacet
  facet normal 0.866025 0.5 0
    outer loop
      vertex 14.4828 -7.64121 8
      vertex 13.1239 -5.28758 5.5
      vertex 13.1239 -5.28758 8
    endloop
  endfacet
  facet normal 0.866025 0.5 0
    outer loop
      vertex 13.1239 -5.28758 5.5
      vertex 14.4828 -7.64121 8
      vertex 14.4828 -7.64121 5.5
    endloop
  endfacet
  facet normal -0.994522 -0.104528 0
    outer loop
      vertex -8 0 5.5
      vertex -8.26223 2.49494 8
      vertex -8.26223 2.49494 5.5
    endloop
  endfacet
  facet normal -0.994522 -0.104528 0
    outer loop
      vertex -8.26223 2.49494 8
      vertex -8 0 5.5
      vertex -8 0 8
    endloop
  endfacet
  facet normal -0.587785 -0.809017 0
    outer loop
      vertex -14 10.3923 5.5
      vertex -11.9704 8.91774 8
      vertex -14 10.3923 8
    endloop
  endfacet
  facet normal -0.587785 -0.809017 -0
    outer loop
      vertex -11.9704 8.91774 8
      vertex -14 10.3923 5.5
      vertex -11.9704 8.91774 5.5
    endloop
  endfacet
  facet normal -0.866025 0.5 0
    outer loop
      vertex -10.2918 -7.05342 5.5
      vertex -9.03745 -4.88084 8
      vertex -9.03745 -4.88084 5.5
    endloop
  endfacet
  facet normal -0.866025 0.5 0
    outer loop
      vertex -9.03745 -4.88084 8
      vertex -10.2918 -7.05342 5.5
      vertex -10.2918 -7.05342 8
    endloop
  endfacet
  facet normal -0.866025 -0.5 0
    outer loop
      vertex -9.03745 4.88084 5.5
      vertex -10.2918 7.05342 8
      vertex -10.2918 7.05342 5.5
    endloop
  endfacet
  facet normal -0.866025 -0.5 0
    outer loop
      vertex -10.2918 7.05342 8
      vertex -9.03745 4.88084 5.5
      vertex -9.03745 4.88084 8
    endloop
  endfacet
  facet normal -0.951057 -0.309017 0
    outer loop
      vertex -8.26223 2.49494 5.5
      vertex -9.03745 4.88084 8
      vertex -9.03745 4.88084 5.5
    endloop
  endfacet
  facet normal -0.951057 -0.309017 0
    outer loop
      vertex -9.03745 4.88084 8
      vertex -8.26223 2.49494 5.5
      vertex -8.26223 2.49494 8
    endloop
  endfacet
  facet normal -0.743145 -0.669131 0
    outer loop
      vertex -10.2918 7.05342 5.5
      vertex -11.9704 8.91774 8
      vertex -11.9704 8.91774 5.5
    endloop
  endfacet
  facet normal -0.743145 -0.669131 0
    outer loop
      vertex -11.9704 8.91774 8
      vertex -10.2918 7.05342 5.5
      vertex -10.2918 7.05342 8
    endloop
  endfacet
  facet normal -0.207912 -0.978148 1.35449e-07
    outer loop
      vertex -17.9032 11.7552 8
      vertex -16.4942 11.4557 5.5
      vertex -16.2918 11.4127 8
    endloop
  endfacet
  facet normal -0.207912 -0.978148 0
    outer loop
      vertex -17.9032 11.7552 0
      vertex -16.4942 11.4557 5.5
      vertex -17.9032 11.7552 8
    endloop
  endfacet
  facet normal -0.207912 -0.978148 -0
    outer loop
      vertex -16.4942 11.4557 5.5
      vertex -17.9032 11.7552 0
      vertex -16.4942 11.4557 0
    endloop
  endfacet
  facet normal -0.20791 -0.978148 -0
    outer loop
      vertex -16.2918 11.4127 8
      vertex -16.4942 11.4557 5.5
      vertex -16.2918 11.4127 5.5
    endloop
  endfacet
  facet normal -0.406737 -0.913545 0
    outer loop
      vertex -16.2918 11.4127 5.5
      vertex -14 10.3923 8
      vertex -16.2918 11.4127 8
    endloop
  endfacet
  facet normal -0.406737 -0.913545 -0
    outer loop
      vertex -14 10.3923 8
      vertex -16.2918 11.4127 5.5
      vertex -14 10.3923 5.5
    endloop
  endfacet
  facet normal -0.951057 0.309017 0
    outer loop
      vertex -9.03745 -4.88084 5.5
      vertex -8.26223 -2.49494 8
      vertex -8.26223 -2.49494 5.5
    endloop
  endfacet
  facet normal -0.951057 0.309017 0
    outer loop
      vertex -8.26223 -2.49494 8
      vertex -9.03745 -4.88084 5.5
      vertex -9.03745 -4.88084 8
    endloop
  endfacet
  facet normal -0.994522 0.104528 0
    outer loop
      vertex -8.26223 -2.49494 5.5
      vertex -8 0 8
      vertex -8 0 5.5
    endloop
  endfacet
  facet normal -0.994522 0.104528 0
    outer loop
      vertex -8 0 8
      vertex -8.26223 -2.49494 5.5
      vertex -8.26223 -2.49494 8
    endloop
  endfacet
  facet normal -0.20791 0.978148 0
    outer loop
      vertex -16.4942 -11.4557 5.5
      vertex -16.2918 -11.4127 8
      vertex -16.2918 -11.4127 5.5
    endloop
  endfacet
  facet normal -0.207912 0.978148 1.35449e-07
    outer loop
      vertex -16.2918 -11.4127 8
      vertex -16.4942 -11.4557 5.5
      vertex -17.9032 -11.7552 8
    endloop
  endfacet
  facet normal -0.207912 0.978148 0
    outer loop
      vertex -17.9032 -11.7552 0
      vertex -16.4942 -11.4557 5.5
      vertex -16.4942 -11.4557 0
    endloop
  endfacet
  facet normal -0.207912 0.978148 0
    outer loop
      vertex -16.4942 -11.4557 5.5
      vertex -17.9032 -11.7552 0
      vertex -17.9032 -11.7552 8
    endloop
  endfacet
  facet normal -0.587785 0.809017 0
    outer loop
      vertex -11.9704 -8.91774 5.5
      vertex -14 -10.3923 8
      vertex -11.9704 -8.91774 8
    endloop
  endfacet
  facet normal -0.587785 0.809017 0
    outer loop
      vertex -14 -10.3923 8
      vertex -11.9704 -8.91774 5.5
      vertex -14 -10.3923 5.5
    endloop
  endfacet
  facet normal -0.406737 0.913545 0
    outer loop
      vertex -14 -10.3923 5.5
      vertex -16.2918 -11.4127 8
      vertex -14 -10.3923 8
    endloop
  endfacet
  facet normal -0.406737 0.913545 0
    outer loop
      vertex -16.2918 -11.4127 8
      vertex -14 -10.3923 5.5
      vertex -16.2918 -11.4127 5.5
    endloop
  endfacet
  facet normal -0.743145 0.669131 0
    outer loop
      vertex -11.9704 -8.91774 5.5
      vertex -10.2918 -7.05342 8
      vertex -10.2918 -7.05342 5.5
    endloop
  endfacet
  facet normal -0.743145 0.669131 0
    outer loop
      vertex -10.2918 -7.05342 8
      vertex -11.9704 -8.91774 5.5
      vertex -11.9704 -8.91774 8
    endloop
  endfacet
  facet normal -0.207912 0.978148 0
    outer loop
      vertex 3.7082 8.58732 5.5
      vertex 1.25434 8.06574 8
      vertex 3.7082 8.58732 8
    endloop
  endfacet
  facet normal -0.207912 0.978148 0
    outer loop
      vertex 1.25434 8.06574 8
      vertex 3.7082 8.58732 5.5
      vertex 1.25434 8.06574 5.5
    endloop
  endfacet
  facet normal -0.866025 0.5 0
    outer loop
      vertex 9.7082 12.9466 5.5
      vertex 10.9625 15.1192 8
      vertex 10.9625 15.1192 5.5
    endloop
  endfacet
  facet normal -0.866025 0.5 0
    outer loop
      vertex 10.9625 15.1192 8
      vertex 9.7082 12.9466 5.5
      vertex 9.7082 12.9466 8
    endloop
  endfacet
  facet normal 0.994522 0.104529 0
    outer loop
      vertex -11.7378 17.5051 8
      vertex -11.7765 17.8737 0
      vertex -11.7765 17.8737 8
    endloop
  endfacet
  facet normal 0.994522 0.104529 0
    outer loop
      vertex -11.7765 17.8737 0
      vertex -11.7378 17.5051 8
      vertex -11.7378 17.5051 0
    endloop
  endfacet
  facet normal -0.994522 0.104529 0
    outer loop
      vertex 11.7378 17.5051 0
      vertex 11.7765 17.8737 8
      vertex 11.7765 17.8737 0
    endloop
  endfacet
  facet normal -0.994522 0.104529 0
    outer loop
      vertex 11.7765 17.8737 8
      vertex 11.7378 17.5051 0
      vertex 11.7378 17.5051 8
    endloop
  endfacet
  facet normal -0.406737 0.913545 0
    outer loop
      vertex 6 9.60769 5.5
      vertex 3.7082 8.58732 8
      vertex 6 9.60769 8
    endloop
  endfacet
  facet normal -0.406737 0.913545 0
    outer loop
      vertex 3.7082 8.58732 8
      vertex 6 9.60769 5.5
      vertex 3.7082 8.58732 5.5
    endloop
  endfacet
  facet normal -0.951056 0.309017 0
    outer loop
      vertex 11.4174 16.5191 5.5
      vertex 11.7378 17.5051 0
      vertex 11.4174 16.5191 0
    endloop
  endfacet
  facet normal -0.951056 0.309017 0
    outer loop
      vertex 11.7378 17.5051 0
      vertex 11.4174 16.5191 5.5
      vertex 11.7378 17.5051 8
    endloop
  endfacet
  facet normal -0.951057 0.309017 0
    outer loop
      vertex 10.9625 15.1192 8
      vertex 11.4174 16.5191 5.5
      vertex 10.9625 15.1192 5.5
    endloop
  endfacet
  facet normal -0.951056 0.309017 1.38066e-08
    outer loop
      vertex 11.4174 16.5191 5.5
      vertex 10.9625 15.1192 8
      vertex 11.7378 17.5051 8
    endloop
  endfacet
  facet normal 0.406737 0.913545 -0
    outer loop
      vertex -3.7082 8.58732 5.5
      vertex -6 9.60769 8
      vertex -3.7082 8.58732 8
    endloop
  endfacet
  facet normal 0.406737 0.913545 0
    outer loop
      vertex -6 9.60769 8
      vertex -3.7082 8.58732 5.5
      vertex -6 9.60769 5.5
    endloop
  endfacet
  facet normal 0.743145 0.669131 0
    outer loop
      vertex -8.02957 11.0823 8
      vertex -9.7082 12.9466 5.5
      vertex -9.7082 12.9466 8
    endloop
  endfacet
  facet normal 0.743145 0.669131 0
    outer loop
      vertex -9.7082 12.9466 5.5
      vertex -8.02957 11.0823 8
      vertex -8.02957 11.0823 5.5
    endloop
  endfacet
  facet normal -0.743145 0.669131 0
    outer loop
      vertex 8.02957 11.0823 5.5
      vertex 9.7082 12.9466 8
      vertex 9.7082 12.9466 5.5
    endloop
  endfacet
  facet normal -0.743145 0.669131 0
    outer loop
      vertex 9.7082 12.9466 8
      vertex 8.02957 11.0823 5.5
      vertex 8.02957 11.0823 8
    endloop
  endfacet
  facet normal -0.587785 0.809017 0
    outer loop
      vertex 8.02957 11.0823 5.5
      vertex 6 9.60769 8
      vertex 8.02957 11.0823 8
    endloop
  endfacet
  facet normal -0.587785 0.809017 0
    outer loop
      vertex 6 9.60769 8
      vertex 8.02957 11.0823 5.5
      vertex 6 9.60769 5.5
    endloop
  endfacet
  facet normal 0.207912 0.978148 -0
    outer loop
      vertex -1.25434 8.06574 5.5
      vertex -3.7082 8.58732 8
      vertex -1.25434 8.06574 8
    endloop
  endfacet
  facet normal 0.207912 0.978148 0
    outer loop
      vertex -3.7082 8.58732 8
      vertex -1.25434 8.06574 5.5
      vertex -3.7082 8.58732 5.5
    endloop
  endfacet
  facet normal 0.587785 0.809017 -0
    outer loop
      vertex -6 9.60769 5.5
      vertex -8.02957 11.0823 8
      vertex -6 9.60769 8
    endloop
  endfacet
  facet normal 0.587785 0.809017 0
    outer loop
      vertex -8.02957 11.0823 8
      vertex -6 9.60769 5.5
      vertex -8.02957 11.0823 5.5
    endloop
  endfacet
  facet normal 0.866025 0.5 0
    outer loop
      vertex -9.7082 12.9466 8
      vertex -10.9625 15.1192 5.5
      vertex -10.9625 15.1192 8
    endloop
  endfacet
  facet normal 0.866025 0.5 0
    outer loop
      vertex -10.9625 15.1192 5.5
      vertex -9.7082 12.9466 8
      vertex -9.7082 12.9466 5.5
    endloop
  endfacet
  facet normal 0.951056 0.309017 0
    outer loop
      vertex -11.7378 17.5051 8
      vertex -11.4174 16.5191 5.5
      vertex -11.7378 17.5051 0
    endloop
  endfacet
  facet normal 0.951056 0.309017 1.38066e-08
    outer loop
      vertex -10.9625 15.1192 8
      vertex -11.4174 16.5191 5.5
      vertex -11.7378 17.5051 8
    endloop
  endfacet
  facet normal 0.951057 0.309017 0
    outer loop
      vertex -11.4174 16.5191 5.5
      vertex -10.9625 15.1192 8
      vertex -10.9625 15.1192 5.5
    endloop
  endfacet
  facet normal 0.951056 0.309017 0
    outer loop
      vertex -11.7378 17.5051 0
      vertex -11.4174 16.5191 5.5
      vertex -11.4174 16.5191 0
    endloop
  endfacet
  facet normal 0 1 -0
    outer loop
      vertex 1.25434 8.06574 5.5
      vertex -1.25434 8.06574 8
      vertex 1.25434 8.06574 8
    endloop
  endfacet
  facet normal 0 1 0
    outer loop
      vertex -1.25434 8.06574 8
      vertex 1.25434 8.06574 5.5
      vertex -1.25434 8.06574 5.5
    endloop
  endfacet
  facet normal -0.994522 -0.104529 0
    outer loop
      vertex 11.7765 -17.8737 0
      vertex 11.7378 -17.5051 8
      vertex 11.7378 -17.5051 0
    endloop
  endfacet
  facet normal -0.994522 -0.104529 0
    outer loop
      vertex 11.7378 -17.5051 8
      vertex 11.7765 -17.8737 0
      vertex 11.7765 -17.8737 8
    endloop
  endfacet
  facet normal 0.994522 -0.104529 0
    outer loop
      vertex -11.7765 -17.8737 8
      vertex -11.7378 -17.5051 0
      vertex -11.7378 -17.5051 8
    endloop
  endfacet
  facet normal 0.994522 -0.104529 0
    outer loop
      vertex -11.7378 -17.5051 0
      vertex -11.7765 -17.8737 8
      vertex -11.7765 -17.8737 0
    endloop
  endfacet
  facet normal 0 -1 0
    outer loop
      vertex -1.25434 -8.06574 5.5
      vertex 1.25434 -8.06574 8
      vertex -1.25434 -8.06574 8
    endloop
  endfacet
  facet normal 0 -1 -0
    outer loop
      vertex 1.25434 -8.06574 8
      vertex -1.25434 -8.06574 5.5
      vertex 1.25434 -8.06574 5.5
    endloop
  endfacet
  facet normal -0.587785 -0.809017 0
    outer loop
      vertex 6 -9.60769 5.5
      vertex 8.02957 -11.0823 8
      vertex 6 -9.60769 8
    endloop
  endfacet
  facet normal -0.587785 -0.809017 -0
    outer loop
      vertex 8.02957 -11.0823 8
      vertex 6 -9.60769 5.5
      vertex 8.02957 -11.0823 5.5
    endloop
  endfacet
  facet normal -0.406737 -0.913545 0
    outer loop
      vertex 3.7082 -8.58732 5.5
      vertex 6 -9.60769 8
      vertex 3.7082 -8.58732 8
    endloop
  endfacet
  facet normal -0.406737 -0.913545 -0
    outer loop
      vertex 6 -9.60769 8
      vertex 3.7082 -8.58732 5.5
      vertex 6 -9.60769 5.5
    endloop
  endfacet
  facet normal 0.743145 -0.669131 0
    outer loop
      vertex -9.7082 -12.9466 8
      vertex -8.02957 -11.0823 5.5
      vertex -8.02957 -11.0823 8
    endloop
  endfacet
  facet normal 0.743145 -0.669131 0
    outer loop
      vertex -8.02957 -11.0823 5.5
      vertex -9.7082 -12.9466 8
      vertex -9.7082 -12.9466 5.5
    endloop
  endfacet
  facet normal 0.866025 -0.5 0
    outer loop
      vertex -10.9625 -15.1192 8
      vertex -9.7082 -12.9466 5.5
      vertex -9.7082 -12.9466 8
    endloop
  endfacet
  facet normal 0.866025 -0.5 0
    outer loop
      vertex -9.7082 -12.9466 5.5
      vertex -10.9625 -15.1192 8
      vertex -10.9625 -15.1192 5.5
    endloop
  endfacet
  facet normal 0.406737 -0.913545 0
    outer loop
      vertex -6 -9.60769 5.5
      vertex -3.7082 -8.58732 8
      vertex -6 -9.60769 8
    endloop
  endfacet
  facet normal 0.406737 -0.913545 0
    outer loop
      vertex -3.7082 -8.58732 8
      vertex -6 -9.60769 5.5
      vertex -3.7082 -8.58732 5.5
    endloop
  endfacet
  facet normal -0.866025 -0.5 0
    outer loop
      vertex 10.9625 -15.1192 5.5
      vertex 9.7082 -12.9466 8
      vertex 9.7082 -12.9466 5.5
    endloop
  endfacet
  facet normal -0.866025 -0.5 0
    outer loop
      vertex 9.7082 -12.9466 8
      vertex 10.9625 -15.1192 5.5
      vertex 10.9625 -15.1192 8
    endloop
  endfacet
  facet normal -0.951057 -0.309017 0
    outer loop
      vertex 11.4174 -16.5191 5.5
      vertex 10.9625 -15.1192 8
      vertex 10.9625 -15.1192 5.5
    endloop
  endfacet
  facet normal -0.951056 -0.309017 1.38066e-08
    outer loop
      vertex 11.4174 -16.5191 5.5
      vertex 11.7378 -17.5051 8
      vertex 10.9625 -15.1192 8
    endloop
  endfacet
  facet normal -0.951056 -0.309017 -0
    outer loop
      vertex 11.7378 -17.5051 8
      vertex 11.4174 -16.5191 5.5
      vertex 11.7378 -17.5051 0
    endloop
  endfacet
  facet normal -0.951056 -0.309017 0
    outer loop
      vertex 11.4174 -16.5191 0
      vertex 11.7378 -17.5051 0
      vertex 11.4174 -16.5191 5.5
    endloop
  endfacet
  facet normal -0.743145 -0.669131 0
    outer loop
      vertex 9.7082 -12.9466 5.5
      vertex 8.02957 -11.0823 8
      vertex 8.02957 -11.0823 5.5
    endloop
  endfacet
  facet normal -0.743145 -0.669131 0
    outer loop
      vertex 8.02957 -11.0823 8
      vertex 9.7082 -12.9466 5.5
      vertex 9.7082 -12.9466 8
    endloop
  endfacet
  facet normal -0.207912 -0.978148 0
    outer loop
      vertex 1.25434 -8.06574 5.5
      vertex 3.7082 -8.58732 8
      vertex 1.25434 -8.06574 8
    endloop
  endfacet
  facet normal -0.207912 -0.978148 -0
    outer loop
      vertex 3.7082 -8.58732 8
      vertex 1.25434 -8.06574 5.5
      vertex 3.7082 -8.58732 5.5
    endloop
  endfacet
  facet normal 0.951057 -0.309017 0
    outer loop
      vertex -10.9625 -15.1192 8
      vertex -11.4174 -16.5191 5.5
      vertex -10.9625 -15.1192 5.5
    endloop
  endfacet
  facet normal 0.951056 -0.309017 1.38066e-08
    outer loop
      vertex -11.7378 -17.5051 8
      vertex -11.4174 -16.5191 5.5
      vertex -10.9625 -15.1192 8
    endloop
  endfacet
  facet normal 0.951056 -0.309017 0
    outer loop
      vertex -11.7378 -17.5051 0
      vertex -11.4174 -16.5191 5.5
      vertex -11.7378 -17.5051 8
    endloop
  endfacet
  facet normal 0.951056 -0.309017 0
    outer loop
      vertex -11.4174 -16.5191 5.5
      vertex -11.7378 -17.5051 0
      vertex -11.4174 -16.5191 0
    endloop
  endfacet
  facet normal 0.587785 -0.809017 0
    outer loop
      vertex -8.02957 -11.0823 5.5
      vertex -6 -9.60769 8
      vertex -8.02957 -11.0823 8
    endloop
  endfacet
  facet normal 0.587785 -0.809017 0
    outer loop
      vertex -6 -9.60769 8
      vertex -8.02957 -11.0823 5.5
      vertex -6 -9.60769 5.5
    endloop
  endfacet
  facet normal 0.207912 -0.978148 0
    outer loop
      vertex -3.7082 -8.58732 5.5
      vertex -1.25434 -8.06574 8
      vertex -3.7082 -8.58732 8
    endloop
  endfacet
  facet normal 0.207912 -0.978148 0
    outer loop
      vertex -1.25434 -8.06574 8
      vertex -3.7082 -8.58732 5.5
      vertex -1.25434 -8.06574 5.5
    endloop
  endfacet
endsolid OpenSCAD_Model
